M48
METRIC,LZ,000.000
;FILE_FORMAT=3:3
;TYPE=PLATED
;Layer: PTH_Through
;EasyEDA v6.5.47, 2024-11-08 14:30:17
;e3f94f1d11f1441e934d171a44e1a75b,b317b68cebba40d893488476fd38059a,10
;Gerber Generator version 0.2
;Holesize 1 = 0.915 mm
T01C0.915
;Holesize 2 = 1.000 mm
T02C1.000
;Holesize 3 = 1.341 mm
T03C1.341
%
G05
G90
T01
X208407Y-059817
X205867Y-059817
X203327Y-059817
X200787Y-059817
X198247Y-059817
X195707Y-059817
X193167Y-059817
X190627Y-059817
X188087Y-059817
X185547Y-059817
X183007Y-059817
X180467Y-044577
X183007Y-044577
X185547Y-044577
X188087Y-044577
X190627Y-044577
X193167Y-044577
X195707Y-044577
X198247Y-044577
X200787Y-044577
X203327Y-044577
X205867Y-044577
X208407Y-044577
X180467Y-059817
X186944Y-024003
X189484Y-024003
X192024Y-024003
X194564Y-024003
X197104Y-024003
X199644Y-024003
X184643Y003247
X184643Y006747
T02
X069671Y001952
X064591Y001952
X159763Y-046454G85X159769Y-046454
X159763Y-042954G85X159769Y-042954
X063834Y-046788
X063834Y-051868
X160779Y002695G85X160785Y002695
X160779Y006195G85X160785Y006195
X079407Y-034550
X079407Y-039550
X149407Y-039550
X149407Y-034550
X080296Y010154
X080296Y005154
X150296Y005154
X150296Y010154
T03
X024812Y-049647G85X023452Y-049647
X044112Y-049647G85X042752Y-049647
X024812Y022723G85X023452Y022723
X044112Y022723G85X042752Y022723
M30
