M48
METRIC,LZ,000.000
;FILE_FORMAT=3:3
;TYPE=PLATED
;Layer: PTH_Through
;EasyEDA v6.5.47, 2024-11-15 14:45:06
;4b5c5f3f08ad4ac4900c7fa2ef8e0776,b317b68cebba40d893488476fd38059a,10
;Gerber Generator version 0.2
;Holesize 1 = 0.915 mm
T01C0.915
;Holesize 2 = 1.000 mm
T02C1.000
;Holesize 3 = 1.050 mm
T03C1.050
%
G05
G90
T01
X012931Y-025160
X017930Y-025160
X115189Y-077343
X112649Y-077343
X110109Y-077343
X107569Y-077343
X105029Y-077343
X102489Y-077343
X099949Y-077343
X097409Y-077343
X094869Y-077343
X092329Y-077343
X089789Y-077343
X087249Y-062103
X089789Y-062103
X092329Y-062103
X094869Y-062103
X097409Y-062103
X099949Y-062103
X102489Y-062103
X105029Y-062103
X107569Y-062103
X110109Y-062103
X112649Y-062103
X115189Y-062103
X087249Y-077343
X061087Y-035560
X061087Y-038100
X061087Y-040640
X061087Y-043180
X061087Y-045720
X061087Y-048260
X088337Y-033259
X091837Y-033259
T02
X041195Y-047700
X041195Y-042620
X089913Y-088872G85X089919Y-088872
X089913Y-085372G85X089919Y-085372
X052117Y-039191
X052117Y-034111
X104010Y-019911G85X104016Y-019911
X104010Y-016411G85X104016Y-016411
X010954Y-075952
X010954Y-080952
X080954Y-080952
X080954Y-075952
X024162Y-006483
X024162Y-011483
X094162Y-011483
X094162Y-006483
T03
X016510Y-037973
X019050Y-037973
M30
