M48
METRIC,LZ,000.000
;FILE_FORMAT=3:3
;TYPE=NON_PLATED
;Layer: NPTH_Through
;EasyEDA v6.5.47, 2024-11-08 14:30:17
;e3f94f1d11f1441e934d171a44e1a75b,b317b68cebba40d893488476fd38059a,10
;Gerber Generator version 0.2
;Holesize 1 = 3.000 mm
T01C3.000
;Holesize 2 = 3.101 mm
T02C3.101
%
G05
G90
T01
X024132Y-041112
X024132Y014188
X043432Y-041112
X043432Y014188
X144907Y-021550
X083907Y-021550
X083907Y-052550
X144907Y-052550
X145796Y023154
X084796Y023154
X084796Y-007846
X145796Y-007846
X012827Y040767
X221234Y040513
X221107Y-070993
X012700Y-071120
T02
X183944Y-023003
X202944Y-023003
X183094Y032997
X202944Y032997
M30
