G04 Layer: TopSilkscreenLayer*
G04 EasyEDA v6.5.47, 2024-11-15 14:45:06*
G04 4b5c5f3f08ad4ac4900c7fa2ef8e0776,b317b68cebba40d893488476fd38059a,10*
G04 Gerber Generator version 0.2*
G04 Scale: 100 percent, Rotated: No, Reflected: No *
G04 Dimensions in millimeters *
G04 leading zeros omitted , absolute positions ,4 integer and 5 decimal *
%FSLAX45Y45*%
%MOMM*%

%ADD10C,0.1524*%
%ADD11C,0.1000*%
%ADD12C,0.2032*%
%ADD13C,0.2540*%
%ADD14C,0.2000*%
%ADD15C,0.2500*%
%ADD16C,0.0138*%

%LPD*%
D10*
X1765300Y-3554984D02*
G01*
X1765300Y-3632962D01*
X1770379Y-3648455D01*
X1780794Y-3658870D01*
X1796542Y-3663950D01*
X1806955Y-3663950D01*
X1822450Y-3658870D01*
X1832863Y-3648455D01*
X1837944Y-3632962D01*
X1837944Y-3554984D01*
X1882647Y-3554984D02*
G01*
X1939797Y-3554984D01*
X1908810Y-3596639D01*
X1924304Y-3596639D01*
X1934718Y-3601720D01*
X1939797Y-3606800D01*
X1945131Y-3622547D01*
X1945131Y-3632962D01*
X1939797Y-3648455D01*
X1929384Y-3658870D01*
X1913889Y-3663950D01*
X1898395Y-3663950D01*
X1882647Y-3658870D01*
X1877568Y-3653789D01*
X1872234Y-3643376D01*
X1595120Y-1892683D02*
G01*
X1595120Y-1975741D01*
X1589786Y-1991489D01*
X1584705Y-1996569D01*
X1574292Y-2001649D01*
X1563878Y-2001649D01*
X1553463Y-1996569D01*
X1548129Y-1991489D01*
X1543050Y-1975741D01*
X1543050Y-1965327D01*
X1629410Y-1913511D02*
G01*
X1639570Y-1908177D01*
X1655318Y-1892683D01*
X1655318Y-2001649D01*
X12167615Y-6972300D02*
G01*
X12089638Y-6972300D01*
X12074143Y-6977379D01*
X12063729Y-6987794D01*
X12058650Y-7003542D01*
X12058650Y-7013955D01*
X12063729Y-7029450D01*
X12074143Y-7039863D01*
X12089638Y-7044944D01*
X12167615Y-7044944D01*
X12146788Y-7079234D02*
G01*
X12152122Y-7089647D01*
X12167615Y-7105395D01*
X12058650Y-7105395D01*
X11824964Y-6819900D02*
G01*
X11738350Y-6819900D01*
X11720824Y-6825742D01*
X11709394Y-6837171D01*
X11703552Y-6854444D01*
X11703552Y-6866128D01*
X11709394Y-6883400D01*
X11720824Y-6894829D01*
X11738350Y-6900671D01*
X11824964Y-6900671D01*
X11807438Y-7019544D02*
G01*
X11819122Y-7008113D01*
X11824964Y-6990842D01*
X11824964Y-6967728D01*
X11819122Y-6950455D01*
X11807438Y-6938771D01*
X11796008Y-6938771D01*
X11784324Y-6944613D01*
X11778736Y-6950455D01*
X11772894Y-6961886D01*
X11761464Y-6996429D01*
X11755622Y-7008113D01*
X11749780Y-7013955D01*
X11738350Y-7019544D01*
X11720824Y-7019544D01*
X11709394Y-7008113D01*
X11703552Y-6990842D01*
X11703552Y-6967728D01*
X11709394Y-6950455D01*
X11720824Y-6938771D01*
X11824964Y-7057644D02*
G01*
X11703552Y-7057644D01*
X11824964Y-7057644D02*
G01*
X11824964Y-7109713D01*
X11819122Y-7126986D01*
X11813280Y-7132828D01*
X11801850Y-7138670D01*
X11790166Y-7138670D01*
X11778736Y-7132828D01*
X11772894Y-7126986D01*
X11767052Y-7109713D01*
X11767052Y-7057644D02*
G01*
X11767052Y-7109713D01*
X11761464Y-7126986D01*
X11755622Y-7132828D01*
X11743938Y-7138670D01*
X11726666Y-7138670D01*
X11715236Y-7132828D01*
X11709394Y-7126986D01*
X11703552Y-7109713D01*
X11703552Y-7057644D01*
X9107172Y-6758686D02*
G01*
X8985760Y-6758686D01*
X9107172Y-6718300D02*
G01*
X9107172Y-6799071D01*
X9107172Y-6837171D02*
G01*
X9101330Y-6843013D01*
X9107172Y-6848855D01*
X9112760Y-6843013D01*
X9107172Y-6837171D01*
X9066532Y-6843013D02*
G01*
X8985760Y-6843013D01*
X9066532Y-6886955D02*
G01*
X8985760Y-6886955D01*
X9043672Y-6886955D02*
G01*
X9060944Y-6904228D01*
X9066532Y-6915658D01*
X9066532Y-6932929D01*
X9060944Y-6944613D01*
X9043672Y-6950455D01*
X8985760Y-6950455D01*
X9066532Y-6994144D02*
G01*
X8985760Y-7028942D01*
X9066532Y-7063486D02*
G01*
X8985760Y-7028942D01*
X8962646Y-7017258D01*
X8951216Y-7005828D01*
X8945374Y-6994144D01*
X8945374Y-6988555D01*
X9089646Y-7182358D02*
G01*
X9101330Y-7170928D01*
X9107172Y-7153655D01*
X9107172Y-7130542D01*
X9101330Y-7113270D01*
X9089646Y-7101586D01*
X9078216Y-7101586D01*
X9066532Y-7107428D01*
X9060944Y-7113270D01*
X9055102Y-7124700D01*
X9043672Y-7159244D01*
X9037830Y-7170928D01*
X9031988Y-7176770D01*
X9020558Y-7182358D01*
X9003032Y-7182358D01*
X8991602Y-7170928D01*
X8985760Y-7153655D01*
X8985760Y-7130542D01*
X8991602Y-7113270D01*
X9003032Y-7101586D01*
X9107172Y-7232142D02*
G01*
X9107172Y-7295642D01*
X9060944Y-7260844D01*
X9060944Y-7278370D01*
X9055102Y-7289800D01*
X9049260Y-7295642D01*
X9031988Y-7301229D01*
X9020558Y-7301229D01*
X9003032Y-7295642D01*
X8991602Y-7283958D01*
X8985760Y-7266686D01*
X8985760Y-7249413D01*
X8991602Y-7232142D01*
X8997444Y-7226300D01*
X9008874Y-7220458D01*
D11*
X9013954Y-6330952D02*
G01*
X8956804Y-6330952D01*
X9013954Y-6311902D02*
G01*
X9013954Y-6350002D01*
X9013954Y-6368036D02*
G01*
X8956804Y-6406390D01*
X9013954Y-6406390D02*
G01*
X8956804Y-6368036D01*
X8759952Y-6311900D02*
G01*
X8702802Y-6311900D01*
X8759952Y-6311900D02*
G01*
X8759952Y-6336537D01*
X8757411Y-6344665D01*
X8754618Y-6347460D01*
X8749029Y-6350000D01*
X8743695Y-6350000D01*
X8738108Y-6347460D01*
X8735568Y-6344665D01*
X8732774Y-6336537D01*
X8732774Y-6311900D01*
X8732774Y-6330950D02*
G01*
X8702802Y-6350000D01*
X8759952Y-6368034D02*
G01*
X8702802Y-6406387D01*
X8759952Y-6406387D02*
G01*
X8702802Y-6368034D01*
X9254490Y-6352794D02*
G01*
X9259824Y-6350000D01*
X9265411Y-6344665D01*
X9267952Y-6339078D01*
X9267952Y-6328155D01*
X9265411Y-6322821D01*
X9259824Y-6317234D01*
X9254490Y-6314694D01*
X9246108Y-6311900D01*
X9232645Y-6311900D01*
X9224518Y-6314694D01*
X9218929Y-6317234D01*
X9213595Y-6322821D01*
X9210802Y-6328155D01*
X9210802Y-6339078D01*
X9213595Y-6344665D01*
X9218929Y-6350000D01*
X9224518Y-6352794D01*
X9232645Y-6352794D01*
X9232645Y-6339078D02*
G01*
X9232645Y-6352794D01*
X9267952Y-6370828D02*
G01*
X9210802Y-6370828D01*
X9267952Y-6370828D02*
G01*
X9210802Y-6408928D01*
X9267952Y-6408928D02*
G01*
X9210802Y-6408928D01*
X9267952Y-6426962D02*
G01*
X9210802Y-6426962D01*
X9267952Y-6426962D02*
G01*
X9267952Y-6446012D01*
X9265411Y-6454139D01*
X9259824Y-6459728D01*
X9254490Y-6462521D01*
X9246108Y-6465062D01*
X9232645Y-6465062D01*
X9224518Y-6462521D01*
X9218929Y-6459728D01*
X9213595Y-6454139D01*
X9210802Y-6446012D01*
X9210802Y-6426962D01*
X9521952Y-6311900D02*
G01*
X9464802Y-6311900D01*
X9521952Y-6311900D02*
G01*
X9521952Y-6336537D01*
X9519411Y-6344665D01*
X9516618Y-6347460D01*
X9511029Y-6350000D01*
X9505695Y-6350000D01*
X9500108Y-6347460D01*
X9497568Y-6344665D01*
X9494774Y-6336537D01*
X9494774Y-6311900D01*
X9494774Y-6330950D02*
G01*
X9464802Y-6350000D01*
X9513824Y-6406387D02*
G01*
X9519411Y-6400800D01*
X9521952Y-6392671D01*
X9521952Y-6381750D01*
X9519411Y-6373621D01*
X9513824Y-6368034D01*
X9508490Y-6368034D01*
X9502902Y-6370828D01*
X9500108Y-6373621D01*
X9497568Y-6378955D01*
X9491979Y-6395465D01*
X9489440Y-6400800D01*
X9486645Y-6403594D01*
X9481058Y-6406387D01*
X9472929Y-6406387D01*
X9467595Y-6400800D01*
X9464802Y-6392671D01*
X9464802Y-6381750D01*
X9467595Y-6373621D01*
X9472929Y-6368034D01*
X9521952Y-6443471D02*
G01*
X9464802Y-6443471D01*
X9521952Y-6424168D02*
G01*
X9521952Y-6462521D01*
X10275824Y-6350000D02*
G01*
X10281411Y-6344665D01*
X10283952Y-6336537D01*
X10283952Y-6325615D01*
X10281411Y-6317234D01*
X10275824Y-6311900D01*
X10270490Y-6311900D01*
X10264902Y-6314694D01*
X10262108Y-6317234D01*
X10259568Y-6322821D01*
X10253979Y-6339078D01*
X10251440Y-6344665D01*
X10248645Y-6347460D01*
X10243058Y-6350000D01*
X10234929Y-6350000D01*
X10229595Y-6344665D01*
X10226802Y-6336537D01*
X10226802Y-6325615D01*
X10229595Y-6317234D01*
X10234929Y-6311900D01*
X10283952Y-6368034D02*
G01*
X10226802Y-6368034D01*
X10283952Y-6368034D02*
G01*
X10283952Y-6387084D01*
X10281411Y-6395465D01*
X10275824Y-6400800D01*
X10270490Y-6403594D01*
X10262108Y-6406387D01*
X10248645Y-6406387D01*
X10240518Y-6403594D01*
X10234929Y-6400800D01*
X10229595Y-6395465D01*
X10226802Y-6387084D01*
X10226802Y-6368034D01*
X10283952Y-6446012D02*
G01*
X10226802Y-6424168D01*
X10283952Y-6446012D02*
G01*
X10226802Y-6467855D01*
X10245852Y-6432550D02*
G01*
X10245852Y-6459728D01*
X10529824Y-6350000D02*
G01*
X10535411Y-6344665D01*
X10537952Y-6336537D01*
X10537952Y-6325615D01*
X10535411Y-6317234D01*
X10529824Y-6311900D01*
X10524490Y-6311900D01*
X10518902Y-6314694D01*
X10516108Y-6317234D01*
X10513568Y-6322821D01*
X10507979Y-6339078D01*
X10505440Y-6344665D01*
X10502645Y-6347460D01*
X10497058Y-6350000D01*
X10488929Y-6350000D01*
X10483595Y-6344665D01*
X10480802Y-6336537D01*
X10480802Y-6325615D01*
X10483595Y-6317234D01*
X10488929Y-6311900D01*
X10524490Y-6408928D02*
G01*
X10529824Y-6406387D01*
X10535411Y-6400800D01*
X10537952Y-6395465D01*
X10537952Y-6384544D01*
X10535411Y-6378955D01*
X10529824Y-6373621D01*
X10524490Y-6370828D01*
X10516108Y-6368034D01*
X10502645Y-6368034D01*
X10494518Y-6370828D01*
X10488929Y-6373621D01*
X10483595Y-6378955D01*
X10480802Y-6384544D01*
X10480802Y-6395465D01*
X10483595Y-6400800D01*
X10488929Y-6406387D01*
X10494518Y-6408928D01*
X10537952Y-6426962D02*
G01*
X10480802Y-6426962D01*
X10480802Y-6426962D02*
G01*
X10480802Y-6459728D01*
X9775952Y-6311900D02*
G01*
X9718802Y-6311900D01*
X9775952Y-6311900D02*
G01*
X9775952Y-6330950D01*
X9773411Y-6339078D01*
X9767824Y-6344665D01*
X9762490Y-6347460D01*
X9754108Y-6350000D01*
X9740645Y-6350000D01*
X9732518Y-6347460D01*
X9726929Y-6344665D01*
X9721595Y-6339078D01*
X9718802Y-6330950D01*
X9718802Y-6311900D01*
X9767824Y-6400800D02*
G01*
X9773411Y-6398005D01*
X9775952Y-6389878D01*
X9775952Y-6384544D01*
X9773411Y-6376162D01*
X9765029Y-6370828D01*
X9751568Y-6368034D01*
X9737852Y-6368034D01*
X9726929Y-6370828D01*
X9721595Y-6376162D01*
X9718802Y-6384544D01*
X9718802Y-6387084D01*
X9721595Y-6395465D01*
X9726929Y-6400800D01*
X9735058Y-6403594D01*
X9737852Y-6403594D01*
X9745979Y-6400800D01*
X9751568Y-6395465D01*
X9754108Y-6387084D01*
X9754108Y-6384544D01*
X9751568Y-6376162D01*
X9745979Y-6370828D01*
X9737852Y-6368034D01*
X9786874Y-6470650D02*
G01*
X9699752Y-6421628D01*
X9775952Y-6510528D02*
G01*
X9718802Y-6488684D01*
X9775952Y-6510528D02*
G01*
X9718802Y-6532371D01*
X9737852Y-6496812D02*
G01*
X9737852Y-6523989D01*
X9775952Y-6582918D02*
G01*
X9775952Y-6555739D01*
X9751568Y-6552945D01*
X9754108Y-6555739D01*
X9756902Y-6563868D01*
X9756902Y-6571995D01*
X9754108Y-6580378D01*
X9748774Y-6585712D01*
X9740645Y-6588505D01*
X9735058Y-6588505D01*
X9726929Y-6585712D01*
X9721595Y-6580378D01*
X9718802Y-6571995D01*
X9718802Y-6563868D01*
X9721595Y-6555739D01*
X9724136Y-6552945D01*
X9729724Y-6550152D01*
X10277602Y-8497699D02*
G01*
X10220452Y-8497699D01*
X10277602Y-8497699D02*
G01*
X10277602Y-8516749D01*
X10275061Y-8524877D01*
X10269474Y-8530465D01*
X10264140Y-8533259D01*
X10255758Y-8535799D01*
X10242295Y-8535799D01*
X10234168Y-8533259D01*
X10228579Y-8530465D01*
X10223245Y-8524877D01*
X10220452Y-8516749D01*
X10220452Y-8497699D01*
X10277602Y-8592187D02*
G01*
X10220452Y-8564755D01*
X10277602Y-8553833D02*
G01*
X10277602Y-8592187D01*
X10288524Y-8659243D02*
G01*
X10201402Y-8609967D01*
X10277602Y-8698867D02*
G01*
X10220452Y-8677277D01*
X10277602Y-8698867D02*
G01*
X10220452Y-8720711D01*
X10239502Y-8685405D02*
G01*
X10239502Y-8712583D01*
X10269474Y-8771511D02*
G01*
X10275061Y-8768717D01*
X10277602Y-8760589D01*
X10277602Y-8755255D01*
X10275061Y-8746873D01*
X10266679Y-8741539D01*
X10253218Y-8738745D01*
X10239502Y-8738745D01*
X10228579Y-8741539D01*
X10223245Y-8746873D01*
X10220452Y-8755255D01*
X10220452Y-8757795D01*
X10223245Y-8766177D01*
X10228579Y-8771511D01*
X10236708Y-8774305D01*
X10239502Y-8774305D01*
X10247629Y-8771511D01*
X10253218Y-8766177D01*
X10255758Y-8757795D01*
X10255758Y-8755255D01*
X10253218Y-8746873D01*
X10247629Y-8741539D01*
X10239502Y-8738745D01*
X11540490Y-6352794D02*
G01*
X11545824Y-6350000D01*
X11551411Y-6344665D01*
X11553952Y-6339078D01*
X11553952Y-6328155D01*
X11551411Y-6322821D01*
X11545824Y-6317234D01*
X11540490Y-6314694D01*
X11532108Y-6311900D01*
X11518645Y-6311900D01*
X11510518Y-6314694D01*
X11504929Y-6317234D01*
X11499595Y-6322821D01*
X11496802Y-6328155D01*
X11496802Y-6339078D01*
X11499595Y-6344665D01*
X11504929Y-6350000D01*
X11510518Y-6352794D01*
X11553952Y-6387084D02*
G01*
X11551411Y-6381750D01*
X11545824Y-6376162D01*
X11540490Y-6373621D01*
X11532108Y-6370828D01*
X11518645Y-6370828D01*
X11510518Y-6373621D01*
X11504929Y-6376162D01*
X11499595Y-6381750D01*
X11496802Y-6387084D01*
X11496802Y-6398005D01*
X11499595Y-6403594D01*
X11504929Y-6408928D01*
X11510518Y-6411721D01*
X11518645Y-6414515D01*
X11532108Y-6414515D01*
X11540490Y-6411721D01*
X11545824Y-6408928D01*
X11551411Y-6403594D01*
X11553952Y-6398005D01*
X11553952Y-6387084D01*
X11553952Y-6432550D02*
G01*
X11496802Y-6432550D01*
X11553952Y-6432550D02*
G01*
X11553952Y-6456934D01*
X11551411Y-6465062D01*
X11548618Y-6467855D01*
X11543029Y-6470650D01*
X11534902Y-6470650D01*
X11529568Y-6467855D01*
X11526774Y-6465062D01*
X11523979Y-6456934D01*
X11523979Y-6432550D01*
X11553952Y-6488684D02*
G01*
X11496802Y-6488684D01*
X10791952Y-6311900D02*
G01*
X10734802Y-6311900D01*
X10791952Y-6311900D02*
G01*
X10791952Y-6330950D01*
X10789411Y-6339078D01*
X10783824Y-6344665D01*
X10778490Y-6347460D01*
X10770108Y-6350000D01*
X10756645Y-6350000D01*
X10748518Y-6347460D01*
X10742929Y-6344665D01*
X10737595Y-6339078D01*
X10734802Y-6330950D01*
X10734802Y-6311900D01*
X10791952Y-6373621D02*
G01*
X10791952Y-6403594D01*
X10770108Y-6387084D01*
X10770108Y-6395465D01*
X10767568Y-6400800D01*
X10764774Y-6403594D01*
X10756645Y-6406387D01*
X10751058Y-6406387D01*
X10742929Y-6403594D01*
X10737595Y-6398005D01*
X10734802Y-6389878D01*
X10734802Y-6381750D01*
X10737595Y-6373621D01*
X10740136Y-6370828D01*
X10745724Y-6368034D01*
X10791952Y-6451600D02*
G01*
X10753852Y-6424168D01*
X10753852Y-6465062D01*
X10791952Y-6451600D02*
G01*
X10734802Y-6451600D01*
X11037824Y-6350000D02*
G01*
X11043411Y-6344665D01*
X11045952Y-6336537D01*
X11045952Y-6325615D01*
X11043411Y-6317234D01*
X11037824Y-6311900D01*
X11032490Y-6311900D01*
X11026902Y-6314694D01*
X11024108Y-6317234D01*
X11021568Y-6322821D01*
X11015979Y-6339078D01*
X11013440Y-6344665D01*
X11010645Y-6347460D01*
X11005058Y-6350000D01*
X10996929Y-6350000D01*
X10991595Y-6344665D01*
X10988802Y-6336537D01*
X10988802Y-6325615D01*
X10991595Y-6317234D01*
X10996929Y-6311900D01*
X11032490Y-6408928D02*
G01*
X11037824Y-6406387D01*
X11043411Y-6400800D01*
X11045952Y-6395465D01*
X11045952Y-6384544D01*
X11043411Y-6378955D01*
X11037824Y-6373621D01*
X11032490Y-6370828D01*
X11024108Y-6368034D01*
X11010645Y-6368034D01*
X11002518Y-6370828D01*
X10996929Y-6373621D01*
X10991595Y-6378955D01*
X10988802Y-6384544D01*
X10988802Y-6395465D01*
X10991595Y-6400800D01*
X10996929Y-6406387D01*
X11002518Y-6408928D01*
X11045952Y-6426962D02*
G01*
X10988802Y-6426962D01*
X10988802Y-6426962D02*
G01*
X10988802Y-6459728D01*
X11045952Y-6477762D02*
G01*
X10988802Y-6477762D01*
X11045952Y-6515862D02*
G01*
X11007852Y-6477762D01*
X11021568Y-6491478D02*
G01*
X10988802Y-6515862D01*
X11286490Y-6352794D02*
G01*
X11291824Y-6350000D01*
X11297411Y-6344665D01*
X11299952Y-6339078D01*
X11299952Y-6328155D01*
X11297411Y-6322821D01*
X11291824Y-6317234D01*
X11286490Y-6314694D01*
X11278108Y-6311900D01*
X11264645Y-6311900D01*
X11256518Y-6314694D01*
X11250929Y-6317234D01*
X11245595Y-6322821D01*
X11242802Y-6328155D01*
X11242802Y-6339078D01*
X11245595Y-6344665D01*
X11250929Y-6350000D01*
X11256518Y-6352794D01*
X11299952Y-6370828D02*
G01*
X11242802Y-6370828D01*
X11299952Y-6388862D02*
G01*
X11242802Y-6388862D01*
X11299952Y-6388862D02*
G01*
X11299952Y-6413245D01*
X11297411Y-6421628D01*
X11294618Y-6424168D01*
X11289029Y-6426962D01*
X11280902Y-6426962D01*
X11275568Y-6424168D01*
X11272774Y-6421628D01*
X11269979Y-6413245D01*
X11269979Y-6388862D01*
X11299952Y-6461252D02*
G01*
X11297411Y-6455918D01*
X11291824Y-6450329D01*
X11286490Y-6447789D01*
X11278108Y-6444995D01*
X11264645Y-6444995D01*
X11256518Y-6447789D01*
X11250929Y-6450329D01*
X11245595Y-6455918D01*
X11242802Y-6461252D01*
X11242802Y-6472173D01*
X11245595Y-6477762D01*
X11250929Y-6483095D01*
X11256518Y-6485889D01*
X11264645Y-6488684D01*
X11278108Y-6488684D01*
X11286490Y-6485889D01*
X11291824Y-6483095D01*
X11297411Y-6477762D01*
X11299952Y-6472173D01*
X11299952Y-6461252D01*
X11045952Y-7563865D02*
G01*
X11045952Y-7536434D01*
X11021568Y-7533894D01*
X11024108Y-7536434D01*
X11026902Y-7544815D01*
X11026902Y-7552944D01*
X11024108Y-7561071D01*
X11018774Y-7566660D01*
X11010645Y-7569200D01*
X11005058Y-7569200D01*
X10996929Y-7566660D01*
X10991595Y-7561071D01*
X10988802Y-7552944D01*
X10988802Y-7544815D01*
X10991595Y-7536434D01*
X10994136Y-7533894D01*
X10999724Y-7531100D01*
X11045952Y-7587234D02*
G01*
X10988802Y-7609078D01*
X11045952Y-7630921D02*
G01*
X10988802Y-7609078D01*
X11273784Y-7533891D02*
G01*
X11279118Y-7531097D01*
X11284706Y-7525763D01*
X11287246Y-7520175D01*
X11287246Y-7509253D01*
X11284706Y-7503919D01*
X11279118Y-7498331D01*
X11273784Y-7495791D01*
X11265402Y-7492997D01*
X11251940Y-7492997D01*
X11243812Y-7495791D01*
X11238224Y-7498331D01*
X11232890Y-7503919D01*
X11230096Y-7509253D01*
X11230096Y-7520175D01*
X11232890Y-7525763D01*
X11238224Y-7531097D01*
X11243812Y-7533891D01*
X11251940Y-7533891D01*
X11251940Y-7520175D02*
G01*
X11251940Y-7533891D01*
X11287246Y-7551925D02*
G01*
X11230096Y-7551925D01*
X11287246Y-7551925D02*
G01*
X11230096Y-7590025D01*
X11287246Y-7590025D02*
G01*
X11230096Y-7590025D01*
X11287246Y-7608059D02*
G01*
X11230096Y-7608059D01*
X11287246Y-7608059D02*
G01*
X11287246Y-7627109D01*
X11284706Y-7635237D01*
X11279118Y-7640825D01*
X11273784Y-7643619D01*
X11265402Y-7646159D01*
X11251940Y-7646159D01*
X11243812Y-7643619D01*
X11238224Y-7640825D01*
X11232890Y-7635237D01*
X11230096Y-7627109D01*
X11230096Y-7608059D01*
X11553952Y-7429500D02*
G01*
X11496802Y-7451344D01*
X11553952Y-7473187D02*
G01*
X11496802Y-7451344D01*
X11553952Y-7491221D02*
G01*
X11496802Y-7491221D01*
X11553952Y-7491221D02*
G01*
X11553952Y-7515605D01*
X11551411Y-7523987D01*
X11548618Y-7526528D01*
X11543029Y-7529321D01*
X11537695Y-7529321D01*
X11532108Y-7526528D01*
X11529568Y-7523987D01*
X11526774Y-7515605D01*
X11526774Y-7491221D02*
G01*
X11526774Y-7515605D01*
X11523979Y-7523987D01*
X11521440Y-7526528D01*
X11515852Y-7529321D01*
X11507724Y-7529321D01*
X11502136Y-7526528D01*
X11499595Y-7523987D01*
X11496802Y-7515605D01*
X11496802Y-7491221D01*
X11553952Y-7569200D02*
G01*
X11496802Y-7547355D01*
X11553952Y-7569200D02*
G01*
X11496802Y-7591044D01*
X11515852Y-7555484D02*
G01*
X11515852Y-7582662D01*
X11553952Y-7628128D02*
G01*
X11496802Y-7628128D01*
X11553952Y-7609078D02*
G01*
X11553952Y-7647178D01*
X10512552Y-7353300D02*
G01*
X10455402Y-7353300D01*
X10512552Y-7353300D02*
G01*
X10512552Y-7372350D01*
X10510011Y-7380478D01*
X10504424Y-7386065D01*
X10499090Y-7388860D01*
X10490708Y-7391400D01*
X10477245Y-7391400D01*
X10469118Y-7388860D01*
X10463529Y-7386065D01*
X10458195Y-7380478D01*
X10455402Y-7372350D01*
X10455402Y-7353300D01*
X10501629Y-7409434D02*
G01*
X10504424Y-7415021D01*
X10512552Y-7423150D01*
X10455402Y-7423150D01*
X10523474Y-7490205D02*
G01*
X10436352Y-7441184D01*
X10512552Y-7530084D02*
G01*
X10455402Y-7508239D01*
X10512552Y-7530084D02*
G01*
X10455402Y-7551928D01*
X10474452Y-7516368D02*
G01*
X10474452Y-7543545D01*
X10512552Y-7586218D02*
G01*
X10510011Y-7578089D01*
X10501629Y-7572502D01*
X10488168Y-7569962D01*
X10480040Y-7569962D01*
X10466324Y-7572502D01*
X10458195Y-7578089D01*
X10455402Y-7586218D01*
X10455402Y-7591552D01*
X10458195Y-7599934D01*
X10466324Y-7605268D01*
X10480040Y-7608062D01*
X10488168Y-7608062D01*
X10501629Y-7605268D01*
X10510011Y-7599934D01*
X10512552Y-7591552D01*
X10512552Y-7586218D01*
X10791952Y-7485634D02*
G01*
X10791952Y-7515860D01*
X10770108Y-7499350D01*
X10770108Y-7507478D01*
X10767568Y-7513065D01*
X10764774Y-7515860D01*
X10756645Y-7518400D01*
X10751058Y-7518400D01*
X10742929Y-7515860D01*
X10737595Y-7510271D01*
X10734802Y-7502144D01*
X10734802Y-7494015D01*
X10737595Y-7485634D01*
X10740136Y-7483094D01*
X10745724Y-7480300D01*
X10791952Y-7536434D02*
G01*
X10734802Y-7558278D01*
X10791952Y-7580121D02*
G01*
X10734802Y-7558278D01*
X10791952Y-7603489D02*
G01*
X10791952Y-7633462D01*
X10770108Y-7617205D01*
X10770108Y-7625334D01*
X10767568Y-7630921D01*
X10764774Y-7633462D01*
X10756645Y-7636255D01*
X10751058Y-7636255D01*
X10742929Y-7633462D01*
X10737595Y-7628128D01*
X10734802Y-7620000D01*
X10734802Y-7611871D01*
X10737595Y-7603489D01*
X10740136Y-7600950D01*
X10745724Y-7598155D01*
X10283952Y-7353300D02*
G01*
X10226802Y-7353300D01*
X10283952Y-7353300D02*
G01*
X10283952Y-7372350D01*
X10281411Y-7380478D01*
X10275824Y-7386065D01*
X10270490Y-7388860D01*
X10262108Y-7391400D01*
X10248645Y-7391400D01*
X10240518Y-7388860D01*
X10234929Y-7386065D01*
X10229595Y-7380478D01*
X10226802Y-7372350D01*
X10226802Y-7353300D01*
X10270490Y-7412228D02*
G01*
X10273029Y-7412228D01*
X10278618Y-7415021D01*
X10281411Y-7417562D01*
X10283952Y-7423150D01*
X10283952Y-7434071D01*
X10281411Y-7439405D01*
X10278618Y-7442200D01*
X10273029Y-7444994D01*
X10267695Y-7444994D01*
X10262108Y-7442200D01*
X10253979Y-7436865D01*
X10226802Y-7409434D01*
X10226802Y-7447787D01*
X10294874Y-7514844D02*
G01*
X10207752Y-7465568D01*
X10283952Y-7554468D02*
G01*
X10226802Y-7532878D01*
X10283952Y-7554468D02*
G01*
X10226802Y-7576312D01*
X10245852Y-7541005D02*
G01*
X10245852Y-7568184D01*
X10273029Y-7594345D02*
G01*
X10275824Y-7599934D01*
X10283952Y-7608062D01*
X10226802Y-7608062D01*
X9775952Y-7353300D02*
G01*
X9718802Y-7353300D01*
X9775952Y-7353300D02*
G01*
X9775952Y-7372350D01*
X9773411Y-7380478D01*
X9767824Y-7386065D01*
X9762490Y-7388860D01*
X9754108Y-7391400D01*
X9740645Y-7391400D01*
X9732518Y-7388860D01*
X9726929Y-7386065D01*
X9721595Y-7380478D01*
X9718802Y-7372350D01*
X9718802Y-7353300D01*
X9775952Y-7436865D02*
G01*
X9737852Y-7409434D01*
X9737852Y-7450328D01*
X9775952Y-7436865D02*
G01*
X9718802Y-7436865D01*
X9786874Y-7517384D02*
G01*
X9699752Y-7468362D01*
X9775952Y-7557262D02*
G01*
X9718802Y-7535418D01*
X9775952Y-7557262D02*
G01*
X9718802Y-7579105D01*
X9737852Y-7543545D02*
G01*
X9737852Y-7570978D01*
X9775952Y-7602473D02*
G01*
X9775952Y-7632445D01*
X9754108Y-7616189D01*
X9754108Y-7624318D01*
X9751568Y-7629905D01*
X9748774Y-7632445D01*
X9740645Y-7635239D01*
X9735058Y-7635239D01*
X9726929Y-7632445D01*
X9721595Y-7627112D01*
X9718802Y-7618984D01*
X9718802Y-7610855D01*
X9721595Y-7602473D01*
X9724136Y-7599934D01*
X9729724Y-7597139D01*
X10029952Y-7353300D02*
G01*
X9972802Y-7353300D01*
X10029952Y-7353300D02*
G01*
X10029952Y-7372350D01*
X10027411Y-7380478D01*
X10021824Y-7386065D01*
X10016490Y-7388860D01*
X10008108Y-7391400D01*
X9994645Y-7391400D01*
X9986518Y-7388860D01*
X9980929Y-7386065D01*
X9975595Y-7380478D01*
X9972802Y-7372350D01*
X9972802Y-7353300D01*
X10029952Y-7415021D02*
G01*
X10029952Y-7444994D01*
X10008108Y-7428484D01*
X10008108Y-7436865D01*
X10005568Y-7442200D01*
X10002774Y-7444994D01*
X9994645Y-7447787D01*
X9989058Y-7447787D01*
X9980929Y-7444994D01*
X9975595Y-7439405D01*
X9972802Y-7431278D01*
X9972802Y-7423150D01*
X9975595Y-7415021D01*
X9978136Y-7412228D01*
X9983724Y-7409434D01*
X10040874Y-7514844D02*
G01*
X9953752Y-7465568D01*
X10029952Y-7554468D02*
G01*
X9972802Y-7532878D01*
X10029952Y-7554468D02*
G01*
X9972802Y-7576312D01*
X9991852Y-7541005D02*
G01*
X9991852Y-7568184D01*
X10016490Y-7597139D02*
G01*
X10019029Y-7597139D01*
X10024618Y-7599934D01*
X10027411Y-7602473D01*
X10029952Y-7608062D01*
X10029952Y-7618984D01*
X10027411Y-7624318D01*
X10024618Y-7627112D01*
X10019029Y-7629905D01*
X10013695Y-7629905D01*
X10008108Y-7627112D01*
X9999979Y-7621778D01*
X9972802Y-7594345D01*
X9972802Y-7632445D01*
X9521954Y-7353300D02*
G01*
X9464804Y-7353300D01*
X9521954Y-7353300D02*
G01*
X9521954Y-7372350D01*
X9519414Y-7380478D01*
X9513826Y-7386065D01*
X9508492Y-7388860D01*
X9500110Y-7391400D01*
X9486648Y-7391400D01*
X9478520Y-7388860D01*
X9472932Y-7386065D01*
X9467598Y-7380478D01*
X9464804Y-7372350D01*
X9464804Y-7353300D01*
X9521954Y-7442200D02*
G01*
X9521954Y-7415021D01*
X9497570Y-7412228D01*
X9500110Y-7415021D01*
X9502904Y-7423150D01*
X9502904Y-7431278D01*
X9500110Y-7439405D01*
X9494776Y-7444994D01*
X9486648Y-7447787D01*
X9481060Y-7447787D01*
X9472932Y-7444994D01*
X9467598Y-7439405D01*
X9464804Y-7431278D01*
X9464804Y-7423150D01*
X9467598Y-7415021D01*
X9470138Y-7412228D01*
X9475726Y-7409434D01*
X9532876Y-7514844D02*
G01*
X9445754Y-7465568D01*
X9521954Y-7554468D02*
G01*
X9464804Y-7532878D01*
X9521954Y-7554468D02*
G01*
X9464804Y-7576312D01*
X9483854Y-7541005D02*
G01*
X9483854Y-7568184D01*
X9521954Y-7621778D02*
G01*
X9483854Y-7594345D01*
X9483854Y-7635239D01*
X9521954Y-7621778D02*
G01*
X9464804Y-7621778D01*
X9013954Y-7531100D02*
G01*
X8956804Y-7531100D01*
X9013954Y-7531100D02*
G01*
X9013954Y-7550150D01*
X9011414Y-7558278D01*
X9005826Y-7563865D01*
X9000492Y-7566660D01*
X8992110Y-7569200D01*
X8978648Y-7569200D01*
X8970520Y-7566660D01*
X8964932Y-7563865D01*
X8959598Y-7558278D01*
X8956804Y-7550150D01*
X8956804Y-7531100D01*
X9013954Y-7603744D02*
G01*
X9011414Y-7595362D01*
X9003032Y-7590028D01*
X8989570Y-7587234D01*
X8981442Y-7587234D01*
X8967726Y-7590028D01*
X8959598Y-7595362D01*
X8956804Y-7603744D01*
X8956804Y-7609078D01*
X8959598Y-7617205D01*
X8967726Y-7622794D01*
X8981442Y-7625587D01*
X8989570Y-7625587D01*
X9003032Y-7622794D01*
X9011414Y-7617205D01*
X9013954Y-7609078D01*
X9013954Y-7603744D01*
X9267954Y-7505700D02*
G01*
X9210804Y-7505700D01*
X9267954Y-7505700D02*
G01*
X9267954Y-7524750D01*
X9265414Y-7532878D01*
X9259826Y-7538465D01*
X9254492Y-7541260D01*
X9246110Y-7543800D01*
X9232648Y-7543800D01*
X9224520Y-7541260D01*
X9218932Y-7538465D01*
X9213598Y-7532878D01*
X9210804Y-7524750D01*
X9210804Y-7505700D01*
X9254492Y-7564628D02*
G01*
X9257032Y-7564628D01*
X9262620Y-7567421D01*
X9265414Y-7569962D01*
X9267954Y-7575550D01*
X9267954Y-7586471D01*
X9265414Y-7591805D01*
X9262620Y-7594600D01*
X9257032Y-7597394D01*
X9251698Y-7597394D01*
X9246110Y-7594600D01*
X9237982Y-7589265D01*
X9210804Y-7561834D01*
X9210804Y-7600187D01*
X9257032Y-7617968D02*
G01*
X9259826Y-7623555D01*
X9267954Y-7631684D01*
X9210804Y-7631684D01*
X8759952Y-7531100D02*
G01*
X8702802Y-7531100D01*
X8759952Y-7531100D02*
G01*
X8702802Y-7569200D01*
X8759952Y-7569200D02*
G01*
X8702802Y-7569200D01*
X8746490Y-7628128D02*
G01*
X8751824Y-7625587D01*
X8757411Y-7620000D01*
X8759952Y-7614665D01*
X8759952Y-7603744D01*
X8757411Y-7598155D01*
X8751824Y-7592821D01*
X8746490Y-7590028D01*
X8738108Y-7587234D01*
X8724645Y-7587234D01*
X8716518Y-7590028D01*
X8710929Y-7592821D01*
X8705595Y-7598155D01*
X8702802Y-7603744D01*
X8702802Y-7614665D01*
X8705595Y-7620000D01*
X8710929Y-7625587D01*
X8716518Y-7628128D01*
D10*
X3504691Y-4443221D02*
G01*
X3494277Y-4448555D01*
X3483863Y-4458970D01*
X3478784Y-4469129D01*
X3478784Y-4489957D01*
X3483863Y-4500371D01*
X3494277Y-4510786D01*
X3504691Y-4516120D01*
X3520440Y-4521200D01*
X3546347Y-4521200D01*
X3561841Y-4516120D01*
X3572256Y-4510786D01*
X3582670Y-4500371D01*
X3587750Y-4489957D01*
X3587750Y-4469129D01*
X3582670Y-4458970D01*
X3572256Y-4448555D01*
X3561841Y-4443221D01*
X3499611Y-4408931D02*
G01*
X3494277Y-4398518D01*
X3478784Y-4383023D01*
X3587750Y-4383023D01*
X9512808Y-8790178D02*
G01*
X9523222Y-8784844D01*
X9533636Y-8774429D01*
X9538715Y-8764270D01*
X9538715Y-8743442D01*
X9533636Y-8733028D01*
X9523222Y-8722613D01*
X9512808Y-8717279D01*
X9497059Y-8712200D01*
X9471152Y-8712200D01*
X9455658Y-8717279D01*
X9445243Y-8722613D01*
X9434829Y-8733028D01*
X9429750Y-8743442D01*
X9429750Y-8764270D01*
X9434829Y-8774429D01*
X9445243Y-8784844D01*
X9455658Y-8790178D01*
X9512808Y-8829547D02*
G01*
X9517888Y-8829547D01*
X9528302Y-8834881D01*
X9533636Y-8839962D01*
X9538715Y-8850376D01*
X9538715Y-8871204D01*
X9533636Y-8881618D01*
X9528302Y-8886697D01*
X9517888Y-8892031D01*
X9507474Y-8892031D01*
X9497059Y-8886697D01*
X9481565Y-8876284D01*
X9429750Y-8824468D01*
X9429750Y-8897112D01*
X4596891Y-3592321D02*
G01*
X4586477Y-3597655D01*
X4576063Y-3608070D01*
X4570984Y-3618229D01*
X4570984Y-3639057D01*
X4576063Y-3649471D01*
X4586477Y-3659886D01*
X4596891Y-3665220D01*
X4612640Y-3670300D01*
X4638547Y-3670300D01*
X4654041Y-3665220D01*
X4664456Y-3659886D01*
X4674870Y-3649471D01*
X4679950Y-3639057D01*
X4679950Y-3618229D01*
X4674870Y-3608070D01*
X4664456Y-3597655D01*
X4654041Y-3592321D01*
X4570984Y-3547618D02*
G01*
X4570984Y-3490468D01*
X4612640Y-3521710D01*
X4612640Y-3506215D01*
X4617720Y-3495802D01*
X4622800Y-3490468D01*
X4638547Y-3485387D01*
X4648961Y-3485387D01*
X4664456Y-3490468D01*
X4674870Y-3500881D01*
X4679950Y-3516629D01*
X4679950Y-3532123D01*
X4674870Y-3547618D01*
X4669790Y-3552952D01*
X4659375Y-3558031D01*
X10922508Y-1894078D02*
G01*
X10932922Y-1888744D01*
X10943336Y-1878329D01*
X10948415Y-1868170D01*
X10948415Y-1847342D01*
X10943336Y-1836928D01*
X10932922Y-1826513D01*
X10922508Y-1821179D01*
X10906759Y-1816100D01*
X10880852Y-1816100D01*
X10865358Y-1821179D01*
X10854943Y-1826513D01*
X10844529Y-1836928D01*
X10839450Y-1847342D01*
X10839450Y-1868170D01*
X10844529Y-1878329D01*
X10854943Y-1888744D01*
X10865358Y-1894078D01*
X10948415Y-1980184D02*
G01*
X10875772Y-1928368D01*
X10875772Y-2006345D01*
X10948415Y-1980184D02*
G01*
X10839450Y-1980184D01*
X4572000Y-5904484D02*
G01*
X4572000Y-6013450D01*
X4572000Y-5904484D02*
G01*
X4608322Y-5904484D01*
X4624070Y-5909563D01*
X4634229Y-5919978D01*
X4639563Y-5930392D01*
X4644643Y-5946139D01*
X4644643Y-5972047D01*
X4639563Y-5987542D01*
X4634229Y-5997955D01*
X4624070Y-6008370D01*
X4608322Y-6013450D01*
X4572000Y-6013450D01*
X4756911Y-5930392D02*
G01*
X4751831Y-5919978D01*
X4741418Y-5909563D01*
X4731004Y-5904484D01*
X4710175Y-5904484D01*
X4699761Y-5909563D01*
X4689347Y-5919978D01*
X4684268Y-5930392D01*
X4678934Y-5946139D01*
X4678934Y-5972047D01*
X4684268Y-5987542D01*
X4689347Y-5997955D01*
X4699761Y-6008370D01*
X4710175Y-6013450D01*
X4731004Y-6013450D01*
X4741418Y-6008370D01*
X4751831Y-5997955D01*
X4756911Y-5987542D01*
X4791202Y-5925312D02*
G01*
X4801615Y-5919978D01*
X4817109Y-5904484D01*
X4817109Y-6013450D01*
D12*
X6318773Y-7493561D02*
G01*
X6318773Y-7659677D01*
X6235715Y-7576619D02*
G01*
X6401831Y-7576619D01*
X6605031Y-7465621D02*
G01*
X6678945Y-7659677D01*
X6752859Y-7465621D02*
G01*
X6678945Y-7659677D01*
X7011431Y-7465621D02*
G01*
X6993143Y-7475019D01*
X6974601Y-7493561D01*
X6965457Y-7511849D01*
X6956059Y-7539535D01*
X6956059Y-7585763D01*
X6965457Y-7613449D01*
X6974601Y-7631991D01*
X6993143Y-7650533D01*
X7011431Y-7659677D01*
X7048515Y-7659677D01*
X7067057Y-7650533D01*
X7085345Y-7631991D01*
X7094743Y-7613449D01*
X7103887Y-7585763D01*
X7103887Y-7539535D01*
X7094743Y-7511849D01*
X7085345Y-7493561D01*
X7067057Y-7475019D01*
X7048515Y-7465621D01*
X7011431Y-7465621D01*
X7164847Y-7465621D02*
G01*
X7164847Y-7604305D01*
X7173991Y-7631991D01*
X7192533Y-7650533D01*
X7220219Y-7659677D01*
X7238761Y-7659677D01*
X7266447Y-7650533D01*
X7284989Y-7631991D01*
X7294133Y-7604305D01*
X7294133Y-7465621D01*
X7419863Y-7465621D02*
G01*
X7419863Y-7659677D01*
X7355093Y-7465621D02*
G01*
X7484379Y-7465621D01*
X1478610Y-7517904D02*
G01*
X1478610Y-7684020D01*
X1395298Y-7600962D02*
G01*
X1561668Y-7600962D01*
X1622628Y-7490218D02*
G01*
X1696542Y-7684020D01*
X1770456Y-7490218D02*
G01*
X1696542Y-7684020D01*
X1831416Y-7490218D02*
G01*
X1831416Y-7684020D01*
X1892376Y-7490218D02*
G01*
X1892376Y-7684020D01*
X1892376Y-7490218D02*
G01*
X2021662Y-7684020D01*
X2021662Y-7490218D02*
G01*
X2021662Y-7684020D01*
X2224862Y-7490218D02*
G01*
X2224862Y-7684020D01*
X2224862Y-7490218D02*
G01*
X2289378Y-7490218D01*
X2317064Y-7499362D01*
X2335606Y-7517904D01*
X2345004Y-7536446D01*
X2354148Y-7564132D01*
X2354148Y-7610106D01*
X2345004Y-7638046D01*
X2335606Y-7656334D01*
X2317064Y-7674876D01*
X2289378Y-7684020D01*
X2224862Y-7684020D01*
X2553538Y-7536446D02*
G01*
X2544394Y-7517904D01*
X2525852Y-7499362D01*
X2507564Y-7490218D01*
X2470480Y-7490218D01*
X2451938Y-7499362D01*
X2433650Y-7517904D01*
X2424252Y-7536446D01*
X2415108Y-7564132D01*
X2415108Y-7610106D01*
X2424252Y-7638046D01*
X2433650Y-7656334D01*
X2451938Y-7674876D01*
X2470480Y-7684020D01*
X2507564Y-7684020D01*
X2525852Y-7674876D01*
X2544394Y-7656334D01*
X2553538Y-7638046D01*
X3848049Y-6373520D02*
G01*
X3921963Y-6567576D01*
X3995877Y-6373520D02*
G01*
X3921963Y-6567576D01*
X4056837Y-6373520D02*
G01*
X4056837Y-6567576D01*
X4117797Y-6373520D02*
G01*
X4117797Y-6567576D01*
X4117797Y-6373520D02*
G01*
X4247083Y-6567576D01*
X4247083Y-6373520D02*
G01*
X4247083Y-6567576D01*
X4450283Y-6373520D02*
G01*
X4450283Y-6567576D01*
X4450283Y-6373520D02*
G01*
X4524197Y-6567576D01*
X4598111Y-6373520D02*
G01*
X4524197Y-6567576D01*
X4598111Y-6373520D02*
G01*
X4598111Y-6567576D01*
X4732985Y-6373520D02*
G01*
X4659071Y-6567576D01*
X4732985Y-6373520D02*
G01*
X4806899Y-6567576D01*
X4686757Y-6502806D02*
G01*
X4779213Y-6502806D01*
X4867859Y-6373520D02*
G01*
X4997145Y-6567576D01*
X4997145Y-6373520D02*
G01*
X4867859Y-6567576D01*
X5292547Y-6373520D02*
G01*
X5200345Y-6502806D01*
X5338775Y-6502806D01*
X5292547Y-6373520D02*
G01*
X5292547Y-6567576D01*
X5455107Y-6373520D02*
G01*
X5427421Y-6382664D01*
X5409133Y-6410604D01*
X5399735Y-6456578D01*
X5399735Y-6484264D01*
X5409133Y-6530492D01*
X5427421Y-6558178D01*
X5455107Y-6567576D01*
X5473649Y-6567576D01*
X5501335Y-6558178D01*
X5519877Y-6530492D01*
X5529021Y-6484264D01*
X5529021Y-6456578D01*
X5519877Y-6410604D01*
X5501335Y-6382664D01*
X5473649Y-6373520D01*
X5455107Y-6373520D01*
X5589981Y-6373520D02*
G01*
X5663895Y-6567576D01*
X5737809Y-6373520D02*
G01*
X5663895Y-6567576D01*
X4213994Y-7690111D02*
G01*
X4315594Y-7690111D01*
X4259968Y-7764025D01*
X4287654Y-7764025D01*
X4306196Y-7773169D01*
X4315594Y-7782567D01*
X4324738Y-7810253D01*
X4324738Y-7828795D01*
X4315594Y-7856481D01*
X4297052Y-7874769D01*
X4269366Y-7884167D01*
X4241680Y-7884167D01*
X4213994Y-7874769D01*
X4204596Y-7865625D01*
X4195452Y-7847083D01*
X4601852Y-7690111D02*
G01*
X4527938Y-7884167D01*
X4601852Y-7690111D02*
G01*
X4675766Y-7884167D01*
X4555624Y-7819397D02*
G01*
X4648080Y-7819397D01*
X4736726Y-7690111D02*
G01*
X4736726Y-7884167D01*
X4736726Y-7690111D02*
G01*
X4810640Y-7884167D01*
X4884554Y-7690111D02*
G01*
X4810640Y-7884167D01*
X4884554Y-7690111D02*
G01*
X4884554Y-7884167D01*
X4945514Y-7690111D02*
G01*
X4945514Y-7884167D01*
X4945514Y-7690111D02*
G01*
X5028572Y-7690111D01*
X5056258Y-7699255D01*
X5065402Y-7708653D01*
X5074800Y-7727195D01*
X5074800Y-7754881D01*
X5065402Y-7773169D01*
X5056258Y-7782567D01*
X5028572Y-7791711D01*
X4945514Y-7791711D01*
X1533855Y-8036217D02*
G01*
X1524711Y-8017929D01*
X1506169Y-7999387D01*
X1487881Y-7990243D01*
X1450797Y-7990243D01*
X1432255Y-7999387D01*
X1413967Y-8017929D01*
X1404569Y-8036217D01*
X1395425Y-8064157D01*
X1395425Y-8110131D01*
X1404569Y-8137817D01*
X1413967Y-8156359D01*
X1432255Y-8174901D01*
X1450797Y-8184045D01*
X1487881Y-8184045D01*
X1506169Y-8174901D01*
X1524711Y-8156359D01*
X1533855Y-8137817D01*
X1533855Y-8110131D01*
X1487881Y-8110131D02*
G01*
X1533855Y-8110131D01*
X1594815Y-7990243D02*
G01*
X1594815Y-8184045D01*
X1594815Y-7990243D02*
G01*
X1724101Y-8184045D01*
X1724101Y-7990243D02*
G01*
X1724101Y-8184045D01*
X1785061Y-7990243D02*
G01*
X1785061Y-8184045D01*
X1785061Y-7990243D02*
G01*
X1849831Y-7990243D01*
X1877517Y-7999387D01*
X1896059Y-8017929D01*
X1905203Y-8036217D01*
X1914601Y-8064157D01*
X1914601Y-8110131D01*
X1905203Y-8137817D01*
X1896059Y-8156359D01*
X1877517Y-8174901D01*
X1849831Y-8184045D01*
X1785061Y-8184045D01*
X7433843Y-8036217D02*
G01*
X7424699Y-8017929D01*
X7406157Y-7999387D01*
X7387869Y-7990243D01*
X7350785Y-7990243D01*
X7332243Y-7999387D01*
X7313955Y-8017929D01*
X7304557Y-8036217D01*
X7295413Y-8064157D01*
X7295413Y-8110131D01*
X7304557Y-8137817D01*
X7313955Y-8156359D01*
X7332243Y-8174901D01*
X7350785Y-8184045D01*
X7387869Y-8184045D01*
X7406157Y-8174901D01*
X7424699Y-8156359D01*
X7433843Y-8137817D01*
X7433843Y-8110131D01*
X7387869Y-8110131D02*
G01*
X7433843Y-8110131D01*
X7494803Y-7990243D02*
G01*
X7494803Y-8184045D01*
X7494803Y-7990243D02*
G01*
X7624089Y-8184045D01*
X7624089Y-7990243D02*
G01*
X7624089Y-8184045D01*
X7685049Y-7990243D02*
G01*
X7685049Y-8184045D01*
X7685049Y-7990243D02*
G01*
X7749819Y-7990243D01*
X7777505Y-7999387D01*
X7796047Y-8017929D01*
X7805191Y-8036217D01*
X7814589Y-8064157D01*
X7814589Y-8110131D01*
X7805191Y-8137817D01*
X7796047Y-8156359D01*
X7777505Y-8174901D01*
X7749819Y-8184045D01*
X7685049Y-8184045D01*
X3058388Y-8265820D02*
G01*
X2984474Y-8459876D01*
X3058388Y-8265820D02*
G01*
X3132302Y-8459876D01*
X3012160Y-8395106D02*
G01*
X3104616Y-8395106D01*
X3193262Y-8265820D02*
G01*
X3193262Y-8459876D01*
X3193262Y-8265820D02*
G01*
X3257778Y-8265820D01*
X3285718Y-8274964D01*
X3304006Y-8293506D01*
X3313404Y-8312048D01*
X3322548Y-8339734D01*
X3322548Y-8385962D01*
X3313404Y-8413648D01*
X3304006Y-8432190D01*
X3285718Y-8450478D01*
X3257778Y-8459876D01*
X3193262Y-8459876D01*
X3475964Y-8265820D02*
G01*
X3475964Y-8413648D01*
X3466566Y-8441334D01*
X3457422Y-8450478D01*
X3438880Y-8459876D01*
X3420338Y-8459876D01*
X3402050Y-8450478D01*
X3392652Y-8441334D01*
X3383508Y-8413648D01*
X3383508Y-8395106D01*
X3536924Y-8265820D02*
G01*
X3536924Y-8404504D01*
X3546068Y-8432190D01*
X3564610Y-8450478D01*
X3592296Y-8459876D01*
X3610838Y-8459876D01*
X3638524Y-8450478D01*
X3656812Y-8432190D01*
X3666210Y-8404504D01*
X3666210Y-8265820D01*
X3856456Y-8293506D02*
G01*
X3837914Y-8274964D01*
X3810228Y-8265820D01*
X3773398Y-8265820D01*
X3745458Y-8274964D01*
X3727170Y-8293506D01*
X3727170Y-8312048D01*
X3736314Y-8330590D01*
X3745458Y-8339734D01*
X3764000Y-8348878D01*
X3819372Y-8367420D01*
X3837914Y-8376564D01*
X3847058Y-8385962D01*
X3856456Y-8404504D01*
X3856456Y-8432190D01*
X3837914Y-8450478D01*
X3810228Y-8459876D01*
X3773398Y-8459876D01*
X3745458Y-8450478D01*
X3727170Y-8432190D01*
X3981932Y-8265820D02*
G01*
X3981932Y-8459876D01*
X3917416Y-8265820D02*
G01*
X4046702Y-8265820D01*
X4181576Y-8265820D02*
G01*
X4107662Y-8459876D01*
X4181576Y-8265820D02*
G01*
X4255490Y-8459876D01*
X4135348Y-8395106D02*
G01*
X4227804Y-8395106D01*
X4316450Y-8265820D02*
G01*
X4316450Y-8459876D01*
X4316450Y-8265820D02*
G01*
X4399508Y-8265820D01*
X4427194Y-8274964D01*
X4436338Y-8284362D01*
X4445736Y-8302904D01*
X4445736Y-8321192D01*
X4436338Y-8339734D01*
X4427194Y-8348878D01*
X4399508Y-8358276D01*
X4316450Y-8358276D02*
G01*
X4399508Y-8358276D01*
X4427194Y-8367420D01*
X4436338Y-8376564D01*
X4445736Y-8395106D01*
X4445736Y-8422792D01*
X4436338Y-8441334D01*
X4427194Y-8450478D01*
X4399508Y-8459876D01*
X4316450Y-8459876D01*
X4506696Y-8265820D02*
G01*
X4506696Y-8459876D01*
X4506696Y-8459876D02*
G01*
X4617440Y-8459876D01*
X4678400Y-8265820D02*
G01*
X4678400Y-8459876D01*
X4678400Y-8265820D02*
G01*
X4798542Y-8265820D01*
X4678400Y-8358276D02*
G01*
X4752314Y-8358276D01*
X4678400Y-8459876D02*
G01*
X4798542Y-8459876D01*
X5131028Y-8293506D02*
G01*
X5112486Y-8274964D01*
X5084800Y-8265820D01*
X5047970Y-8265820D01*
X5020284Y-8274964D01*
X5001742Y-8293506D01*
X5001742Y-8312048D01*
X5010886Y-8330590D01*
X5020284Y-8339734D01*
X5038572Y-8348878D01*
X5094198Y-8367420D01*
X5112486Y-8376564D01*
X5121884Y-8385962D01*
X5131028Y-8404504D01*
X5131028Y-8432190D01*
X5112486Y-8450478D01*
X5084800Y-8459876D01*
X5047970Y-8459876D01*
X5020284Y-8450478D01*
X5001742Y-8432190D01*
X5256758Y-8265820D02*
G01*
X5256758Y-8459876D01*
X5191988Y-8265820D02*
G01*
X5321274Y-8265820D01*
X5382234Y-8265820D02*
G01*
X5382234Y-8459876D01*
X5382234Y-8265820D02*
G01*
X5502376Y-8265820D01*
X5382234Y-8358276D02*
G01*
X5456148Y-8358276D01*
X5382234Y-8459876D02*
G01*
X5502376Y-8459876D01*
X5563336Y-8265820D02*
G01*
X5563336Y-8459876D01*
X5563336Y-8265820D02*
G01*
X5646394Y-8265820D01*
X5674080Y-8274964D01*
X5683478Y-8284362D01*
X5692622Y-8302904D01*
X5692622Y-8330590D01*
X5683478Y-8348878D01*
X5674080Y-8358276D01*
X5646394Y-8367420D01*
X5563336Y-8367420D01*
X5895822Y-8265820D02*
G01*
X5895822Y-8459876D01*
X5895822Y-8265820D02*
G01*
X5960338Y-8265820D01*
X5988278Y-8274964D01*
X6006566Y-8293506D01*
X6015964Y-8312048D01*
X6025108Y-8339734D01*
X6025108Y-8385962D01*
X6015964Y-8413648D01*
X6006566Y-8432190D01*
X5988278Y-8450478D01*
X5960338Y-8459876D01*
X5895822Y-8459876D01*
X6141440Y-8265820D02*
G01*
X6122898Y-8274964D01*
X6104610Y-8293506D01*
X6095212Y-8312048D01*
X6086068Y-8339734D01*
X6086068Y-8385962D01*
X6095212Y-8413648D01*
X6104610Y-8432190D01*
X6122898Y-8450478D01*
X6141440Y-8459876D01*
X6178524Y-8459876D01*
X6196812Y-8450478D01*
X6215354Y-8432190D01*
X6224498Y-8413648D01*
X6233896Y-8385962D01*
X6233896Y-8339734D01*
X6224498Y-8312048D01*
X6215354Y-8293506D01*
X6196812Y-8274964D01*
X6178524Y-8265820D01*
X6141440Y-8265820D01*
X6294856Y-8265820D02*
G01*
X6341084Y-8459876D01*
X6387058Y-8265820D02*
G01*
X6341084Y-8459876D01*
X6387058Y-8265820D02*
G01*
X6433286Y-8459876D01*
X6479514Y-8265820D02*
G01*
X6433286Y-8459876D01*
X6540474Y-8265820D02*
G01*
X6540474Y-8459876D01*
X6540474Y-8265820D02*
G01*
X6669760Y-8459876D01*
X6669760Y-8265820D02*
G01*
X6669760Y-8459876D01*
X4095318Y-8040255D02*
G01*
X4095318Y-8234057D01*
X4095318Y-8234057D02*
G01*
X4206316Y-8234057D01*
X4267276Y-8040255D02*
G01*
X4267276Y-8234057D01*
X4267276Y-8040255D02*
G01*
X4341190Y-8234057D01*
X4414850Y-8040255D02*
G01*
X4341190Y-8234057D01*
X4414850Y-8040255D02*
G01*
X4414850Y-8234057D01*
X4485208Y-8086229D02*
G01*
X4485208Y-8077085D01*
X4494352Y-8058543D01*
X4503750Y-8049399D01*
X4522038Y-8040255D01*
X4559122Y-8040255D01*
X4577410Y-8049399D01*
X4586808Y-8058543D01*
X4595952Y-8077085D01*
X4595952Y-8095627D01*
X4586808Y-8113915D01*
X4568266Y-8141855D01*
X4475810Y-8234057D01*
X4605350Y-8234057D01*
X4777054Y-8040255D02*
G01*
X4684598Y-8040255D01*
X4675454Y-8123313D01*
X4684598Y-8113915D01*
X4712284Y-8104771D01*
X4739970Y-8104771D01*
X4767910Y-8113915D01*
X4786198Y-8132457D01*
X4795596Y-8160143D01*
X4795596Y-8178685D01*
X4786198Y-8206371D01*
X4767910Y-8224913D01*
X4739970Y-8234057D01*
X4712284Y-8234057D01*
X4684598Y-8224913D01*
X4675454Y-8215515D01*
X4666310Y-8197227D01*
X4976444Y-8104771D02*
G01*
X4967300Y-8132457D01*
X4948758Y-8150999D01*
X4921072Y-8160143D01*
X4911928Y-8160143D01*
X4884242Y-8150999D01*
X4865700Y-8132457D01*
X4856556Y-8104771D01*
X4856556Y-8095627D01*
X4865700Y-8067941D01*
X4884242Y-8049399D01*
X4911928Y-8040255D01*
X4921072Y-8040255D01*
X4948758Y-8049399D01*
X4967300Y-8067941D01*
X4976444Y-8104771D01*
X4976444Y-8150999D01*
X4967300Y-8197227D01*
X4948758Y-8224913D01*
X4921072Y-8234057D01*
X4902530Y-8234057D01*
X4874844Y-8224913D01*
X4865700Y-8206371D01*
X5148402Y-8067941D02*
G01*
X5139004Y-8049399D01*
X5111318Y-8040255D01*
X5093030Y-8040255D01*
X5065090Y-8049399D01*
X5046802Y-8077085D01*
X5037404Y-8123313D01*
X5037404Y-8169541D01*
X5046802Y-8206371D01*
X5065090Y-8224913D01*
X5093030Y-8234057D01*
X5102174Y-8234057D01*
X5129860Y-8224913D01*
X5148402Y-8206371D01*
X5157546Y-8178685D01*
X5157546Y-8169541D01*
X5148402Y-8141855D01*
X5129860Y-8123313D01*
X5102174Y-8113915D01*
X5093030Y-8113915D01*
X5065090Y-8123313D01*
X5046802Y-8141855D01*
X5037404Y-8169541D01*
X2920974Y-7237095D02*
G01*
X2994888Y-7431151D01*
X3068802Y-7237095D02*
G01*
X2994888Y-7431151D01*
X3185134Y-7237095D02*
G01*
X3166592Y-7246493D01*
X3148304Y-7264780D01*
X3138906Y-7283322D01*
X3129762Y-7311009D01*
X3129762Y-7357237D01*
X3138906Y-7384922D01*
X3148304Y-7403464D01*
X3166592Y-7421753D01*
X3185134Y-7431151D01*
X3222218Y-7431151D01*
X3240506Y-7421753D01*
X3259048Y-7403464D01*
X3268192Y-7384922D01*
X3277590Y-7357237D01*
X3277590Y-7311009D01*
X3268192Y-7283322D01*
X3259048Y-7264780D01*
X3240506Y-7246493D01*
X3222218Y-7237095D01*
X3185134Y-7237095D01*
X3338550Y-7237095D02*
G01*
X3338550Y-7431151D01*
X3338550Y-7431151D02*
G01*
X3449294Y-7431151D01*
X3575024Y-7237095D02*
G01*
X3575024Y-7431151D01*
X3510254Y-7237095D02*
G01*
X3639540Y-7237095D01*
X3774414Y-7237095D02*
G01*
X3700500Y-7431151D01*
X3774414Y-7237095D02*
G01*
X3848328Y-7431151D01*
X3728186Y-7366380D02*
G01*
X3820642Y-7366380D01*
X4047718Y-7283322D02*
G01*
X4038574Y-7264780D01*
X4020032Y-7246493D01*
X4001744Y-7237095D01*
X3964660Y-7237095D01*
X3946118Y-7246493D01*
X3927830Y-7264780D01*
X3918432Y-7283322D01*
X3909288Y-7311009D01*
X3909288Y-7357237D01*
X3918432Y-7384922D01*
X3927830Y-7403464D01*
X3946118Y-7421753D01*
X3964660Y-7431151D01*
X4001744Y-7431151D01*
X4020032Y-7421753D01*
X4038574Y-7403464D01*
X4047718Y-7384922D01*
X4047718Y-7357237D01*
X4001744Y-7357237D02*
G01*
X4047718Y-7357237D01*
X4108678Y-7237095D02*
G01*
X4108678Y-7431151D01*
X4108678Y-7237095D02*
G01*
X4228820Y-7237095D01*
X4108678Y-7329551D02*
G01*
X4182592Y-7329551D01*
X4108678Y-7431151D02*
G01*
X4228820Y-7431151D01*
X4432020Y-7237095D02*
G01*
X4432020Y-7431151D01*
X4432020Y-7237095D02*
G01*
X4515078Y-7237095D01*
X4543018Y-7246493D01*
X4552162Y-7255637D01*
X4561306Y-7274179D01*
X4561306Y-7292467D01*
X4552162Y-7311009D01*
X4543018Y-7320153D01*
X4515078Y-7329551D01*
X4432020Y-7329551D01*
X4496790Y-7329551D02*
G01*
X4561306Y-7431151D01*
X4622266Y-7237095D02*
G01*
X4622266Y-7431151D01*
X4622266Y-7237095D02*
G01*
X4742408Y-7237095D01*
X4622266Y-7329551D02*
G01*
X4696180Y-7329551D01*
X4622266Y-7431151D02*
G01*
X4742408Y-7431151D01*
X4941798Y-7283322D02*
G01*
X4932654Y-7264780D01*
X4914112Y-7246493D01*
X4895824Y-7237095D01*
X4858740Y-7237095D01*
X4840198Y-7246493D01*
X4821910Y-7264780D01*
X4812512Y-7283322D01*
X4803368Y-7311009D01*
X4803368Y-7357237D01*
X4812512Y-7384922D01*
X4821910Y-7403464D01*
X4840198Y-7421753D01*
X4858740Y-7431151D01*
X4895824Y-7431151D01*
X4914112Y-7421753D01*
X4932654Y-7403464D01*
X4941798Y-7384922D01*
X4941798Y-7357237D01*
X4895824Y-7357237D02*
G01*
X4941798Y-7357237D01*
X5002758Y-7237095D02*
G01*
X5002758Y-7375779D01*
X5012156Y-7403464D01*
X5030698Y-7421753D01*
X5058384Y-7431151D01*
X5076672Y-7431151D01*
X5104358Y-7421753D01*
X5122900Y-7403464D01*
X5132298Y-7375779D01*
X5132298Y-7237095D01*
X5193258Y-7237095D02*
G01*
X5193258Y-7431151D01*
X5193258Y-7431151D02*
G01*
X5304002Y-7431151D01*
X5438876Y-7237095D02*
G01*
X5364962Y-7431151D01*
X5438876Y-7237095D02*
G01*
X5512790Y-7431151D01*
X5392648Y-7366380D02*
G01*
X5485104Y-7366380D01*
X5638266Y-7237095D02*
G01*
X5638266Y-7431151D01*
X5573750Y-7237095D02*
G01*
X5703036Y-7237095D01*
X5819368Y-7237095D02*
G01*
X5800826Y-7246493D01*
X5782538Y-7264780D01*
X5773140Y-7283322D01*
X5763996Y-7311009D01*
X5763996Y-7357237D01*
X5773140Y-7384922D01*
X5782538Y-7403464D01*
X5800826Y-7421753D01*
X5819368Y-7431151D01*
X5856198Y-7431151D01*
X5874740Y-7421753D01*
X5893282Y-7403464D01*
X5902426Y-7384922D01*
X5911824Y-7357237D01*
X5911824Y-7311009D01*
X5902426Y-7283322D01*
X5893282Y-7264780D01*
X5874740Y-7246493D01*
X5856198Y-7237095D01*
X5819368Y-7237095D01*
X5972784Y-7237095D02*
G01*
X5972784Y-7431151D01*
X5972784Y-7237095D02*
G01*
X6055842Y-7237095D01*
X6083528Y-7246493D01*
X6092672Y-7255637D01*
X6102070Y-7274179D01*
X6102070Y-7292467D01*
X6092672Y-7311009D01*
X6083528Y-7320153D01*
X6055842Y-7329551D01*
X5972784Y-7329551D01*
X6037300Y-7329551D02*
G01*
X6102070Y-7431151D01*
D10*
X5892800Y1042415D02*
G01*
X5892800Y933450D01*
X5892800Y1042415D02*
G01*
X5929122Y1042415D01*
X5944870Y1037336D01*
X5955029Y1026921D01*
X5960363Y1016507D01*
X5965443Y1000760D01*
X5965443Y974852D01*
X5960363Y959357D01*
X5955029Y948944D01*
X5944870Y938529D01*
X5929122Y933450D01*
X5892800Y933450D01*
X6077711Y1016507D02*
G01*
X6072631Y1026921D01*
X6062218Y1037336D01*
X6051804Y1042415D01*
X6030975Y1042415D01*
X6020561Y1037336D01*
X6010147Y1026921D01*
X6005068Y1016507D01*
X5999734Y1000760D01*
X5999734Y974852D01*
X6005068Y959357D01*
X6010147Y948944D01*
X6020561Y938529D01*
X6030975Y933450D01*
X6051804Y933450D01*
X6062218Y938529D01*
X6072631Y948944D01*
X6077711Y959357D01*
X6117336Y1016507D02*
G01*
X6117336Y1021587D01*
X6122415Y1032002D01*
X6127750Y1037336D01*
X6137909Y1042415D01*
X6158738Y1042415D01*
X6169152Y1037336D01*
X6174486Y1032002D01*
X6179565Y1021587D01*
X6179565Y1011173D01*
X6174486Y1000760D01*
X6164072Y985265D01*
X6112002Y933450D01*
X6184900Y933450D01*
D12*
X7949275Y-571070D02*
G01*
X7949275Y-737186D01*
X7866217Y-654128D02*
G01*
X8032333Y-654128D01*
X8235533Y-543130D02*
G01*
X8309447Y-737186D01*
X8383361Y-543130D02*
G01*
X8309447Y-737186D01*
X8641933Y-543130D02*
G01*
X8623645Y-552528D01*
X8605103Y-571070D01*
X8595959Y-589358D01*
X8586561Y-617044D01*
X8586561Y-663272D01*
X8595959Y-690958D01*
X8605103Y-709500D01*
X8623645Y-728042D01*
X8641933Y-737186D01*
X8679017Y-737186D01*
X8697559Y-728042D01*
X8715847Y-709500D01*
X8725245Y-690958D01*
X8734389Y-663272D01*
X8734389Y-617044D01*
X8725245Y-589358D01*
X8715847Y-571070D01*
X8697559Y-552528D01*
X8679017Y-543130D01*
X8641933Y-543130D01*
X8795349Y-543130D02*
G01*
X8795349Y-681814D01*
X8804493Y-709500D01*
X8823035Y-728042D01*
X8850721Y-737186D01*
X8869263Y-737186D01*
X8896949Y-728042D01*
X8915491Y-709500D01*
X8924635Y-681814D01*
X8924635Y-543130D01*
X9050365Y-543130D02*
G01*
X9050365Y-737186D01*
X8985595Y-543130D02*
G01*
X9114881Y-543130D01*
X2799410Y-571004D02*
G01*
X2799410Y-737120D01*
X2716098Y-654062D02*
G01*
X2882468Y-654062D01*
X2943428Y-543318D02*
G01*
X3017342Y-737120D01*
X3091256Y-543318D02*
G01*
X3017342Y-737120D01*
X3152216Y-543318D02*
G01*
X3152216Y-737120D01*
X3213176Y-543318D02*
G01*
X3213176Y-737120D01*
X3213176Y-543318D02*
G01*
X3342462Y-737120D01*
X3342462Y-543318D02*
G01*
X3342462Y-737120D01*
X3545662Y-543318D02*
G01*
X3545662Y-737120D01*
X3545662Y-543318D02*
G01*
X3610178Y-543318D01*
X3637864Y-552462D01*
X3656406Y-571004D01*
X3665804Y-589546D01*
X3674948Y-617232D01*
X3674948Y-663206D01*
X3665804Y-691146D01*
X3656406Y-709434D01*
X3637864Y-727976D01*
X3610178Y-737120D01*
X3545662Y-737120D01*
X3874338Y-589546D02*
G01*
X3865194Y-571004D01*
X3846652Y-552462D01*
X3828364Y-543318D01*
X3791280Y-543318D01*
X3772738Y-552462D01*
X3754450Y-571004D01*
X3745052Y-589546D01*
X3735908Y-617232D01*
X3735908Y-663206D01*
X3745052Y-691146D01*
X3754450Y-709434D01*
X3772738Y-727976D01*
X3791280Y-737120D01*
X3828364Y-737120D01*
X3846652Y-727976D01*
X3865194Y-709434D01*
X3874338Y-691146D01*
X4965649Y-252120D02*
G01*
X5039563Y-446176D01*
X5113477Y-252120D02*
G01*
X5039563Y-446176D01*
X5174437Y-252120D02*
G01*
X5174437Y-446176D01*
X5235397Y-252120D02*
G01*
X5235397Y-446176D01*
X5235397Y-252120D02*
G01*
X5364683Y-446176D01*
X5364683Y-252120D02*
G01*
X5364683Y-446176D01*
X5567883Y-252120D02*
G01*
X5567883Y-446176D01*
X5567883Y-252120D02*
G01*
X5641797Y-446176D01*
X5715711Y-252120D02*
G01*
X5641797Y-446176D01*
X5715711Y-252120D02*
G01*
X5715711Y-446176D01*
X5850585Y-252120D02*
G01*
X5776671Y-446176D01*
X5850585Y-252120D02*
G01*
X5924499Y-446176D01*
X5804357Y-381406D02*
G01*
X5896813Y-381406D01*
X5985459Y-252120D02*
G01*
X6114745Y-446176D01*
X6114745Y-252120D02*
G01*
X5985459Y-446176D01*
X6410147Y-252120D02*
G01*
X6317945Y-381406D01*
X6456375Y-381406D01*
X6410147Y-252120D02*
G01*
X6410147Y-446176D01*
X6572707Y-252120D02*
G01*
X6545021Y-261264D01*
X6526733Y-289204D01*
X6517335Y-335178D01*
X6517335Y-362864D01*
X6526733Y-409092D01*
X6545021Y-436778D01*
X6572707Y-446176D01*
X6591249Y-446176D01*
X6618935Y-436778D01*
X6637477Y-409092D01*
X6646621Y-362864D01*
X6646621Y-335178D01*
X6637477Y-289204D01*
X6618935Y-261264D01*
X6591249Y-252120D01*
X6572707Y-252120D01*
X6707581Y-252120D02*
G01*
X6781495Y-446176D01*
X6855409Y-252120D02*
G01*
X6781495Y-446176D01*
X5534794Y-743211D02*
G01*
X5636394Y-743211D01*
X5580768Y-817125D01*
X5608454Y-817125D01*
X5626996Y-826269D01*
X5636394Y-835667D01*
X5645538Y-863353D01*
X5645538Y-881895D01*
X5636394Y-909581D01*
X5617852Y-927869D01*
X5590166Y-937267D01*
X5562480Y-937267D01*
X5534794Y-927869D01*
X5525396Y-918725D01*
X5516252Y-900183D01*
X5922652Y-743211D02*
G01*
X5848738Y-937267D01*
X5922652Y-743211D02*
G01*
X5996566Y-937267D01*
X5876424Y-872497D02*
G01*
X5968880Y-872497D01*
X6057526Y-743211D02*
G01*
X6057526Y-937267D01*
X6057526Y-743211D02*
G01*
X6131440Y-937267D01*
X6205354Y-743211D02*
G01*
X6131440Y-937267D01*
X6205354Y-743211D02*
G01*
X6205354Y-937267D01*
X6266314Y-743211D02*
G01*
X6266314Y-937267D01*
X6266314Y-743211D02*
G01*
X6349372Y-743211D01*
X6377058Y-752355D01*
X6386202Y-761753D01*
X6395600Y-780295D01*
X6395600Y-807981D01*
X6386202Y-826269D01*
X6377058Y-835667D01*
X6349372Y-844811D01*
X6266314Y-844811D01*
X2854655Y-1089317D02*
G01*
X2845511Y-1071029D01*
X2826969Y-1052487D01*
X2808681Y-1043343D01*
X2771597Y-1043343D01*
X2753055Y-1052487D01*
X2734767Y-1071029D01*
X2725369Y-1089317D01*
X2716225Y-1117257D01*
X2716225Y-1163231D01*
X2725369Y-1190917D01*
X2734767Y-1209459D01*
X2753055Y-1228001D01*
X2771597Y-1237145D01*
X2808681Y-1237145D01*
X2826969Y-1228001D01*
X2845511Y-1209459D01*
X2854655Y-1190917D01*
X2854655Y-1163231D01*
X2808681Y-1163231D02*
G01*
X2854655Y-1163231D01*
X2915615Y-1043343D02*
G01*
X2915615Y-1237145D01*
X2915615Y-1043343D02*
G01*
X3044901Y-1237145D01*
X3044901Y-1043343D02*
G01*
X3044901Y-1237145D01*
X3105861Y-1043343D02*
G01*
X3105861Y-1237145D01*
X3105861Y-1043343D02*
G01*
X3170631Y-1043343D01*
X3198317Y-1052487D01*
X3216859Y-1071029D01*
X3226003Y-1089317D01*
X3235401Y-1117257D01*
X3235401Y-1163231D01*
X3226003Y-1190917D01*
X3216859Y-1209459D01*
X3198317Y-1228001D01*
X3170631Y-1237145D01*
X3105861Y-1237145D01*
X8754643Y-1089317D02*
G01*
X8745499Y-1071029D01*
X8726957Y-1052487D01*
X8708669Y-1043343D01*
X8671585Y-1043343D01*
X8653043Y-1052487D01*
X8634755Y-1071029D01*
X8625357Y-1089317D01*
X8616213Y-1117257D01*
X8616213Y-1163231D01*
X8625357Y-1190917D01*
X8634755Y-1209459D01*
X8653043Y-1228001D01*
X8671585Y-1237145D01*
X8708669Y-1237145D01*
X8726957Y-1228001D01*
X8745499Y-1209459D01*
X8754643Y-1190917D01*
X8754643Y-1163231D01*
X8708669Y-1163231D02*
G01*
X8754643Y-1163231D01*
X8815603Y-1043343D02*
G01*
X8815603Y-1237145D01*
X8815603Y-1043343D02*
G01*
X8944889Y-1237145D01*
X8944889Y-1043343D02*
G01*
X8944889Y-1237145D01*
X9005849Y-1043343D02*
G01*
X9005849Y-1237145D01*
X9005849Y-1043343D02*
G01*
X9070619Y-1043343D01*
X9098305Y-1052487D01*
X9116847Y-1071029D01*
X9125991Y-1089317D01*
X9135389Y-1117257D01*
X9135389Y-1163231D01*
X9125991Y-1190917D01*
X9116847Y-1209459D01*
X9098305Y-1228001D01*
X9070619Y-1237145D01*
X9005849Y-1237145D01*
X4340097Y-1443228D02*
G01*
X4266184Y-1637284D01*
X4340097Y-1443228D02*
G01*
X4414011Y-1637284D01*
X4293870Y-1572513D02*
G01*
X4386325Y-1572513D01*
X4474972Y-1443228D02*
G01*
X4474972Y-1637284D01*
X4474972Y-1443228D02*
G01*
X4539488Y-1443228D01*
X4567427Y-1452371D01*
X4585715Y-1470913D01*
X4595113Y-1489455D01*
X4604258Y-1517142D01*
X4604258Y-1563370D01*
X4595113Y-1591055D01*
X4585715Y-1609597D01*
X4567427Y-1627886D01*
X4539488Y-1637284D01*
X4474972Y-1637284D01*
X4757674Y-1443228D02*
G01*
X4757674Y-1591055D01*
X4748275Y-1618742D01*
X4739131Y-1627886D01*
X4720590Y-1637284D01*
X4702047Y-1637284D01*
X4683759Y-1627886D01*
X4674361Y-1618742D01*
X4665218Y-1591055D01*
X4665218Y-1572513D01*
X4818634Y-1443228D02*
G01*
X4818634Y-1581912D01*
X4827777Y-1609597D01*
X4846320Y-1627886D01*
X4874006Y-1637284D01*
X4892547Y-1637284D01*
X4920234Y-1627886D01*
X4938522Y-1609597D01*
X4947920Y-1581912D01*
X4947920Y-1443228D01*
X5138165Y-1470913D02*
G01*
X5119624Y-1452371D01*
X5091938Y-1443228D01*
X5055108Y-1443228D01*
X5027168Y-1452371D01*
X5008879Y-1470913D01*
X5008879Y-1489455D01*
X5018024Y-1507997D01*
X5027168Y-1517142D01*
X5045709Y-1526286D01*
X5101081Y-1544828D01*
X5119624Y-1553971D01*
X5128768Y-1563370D01*
X5138165Y-1581912D01*
X5138165Y-1609597D01*
X5119624Y-1627886D01*
X5091938Y-1637284D01*
X5055108Y-1637284D01*
X5027168Y-1627886D01*
X5008879Y-1609597D01*
X5263641Y-1443228D02*
G01*
X5263641Y-1637284D01*
X5199125Y-1443228D02*
G01*
X5328411Y-1443228D01*
X5463286Y-1443228D02*
G01*
X5389372Y-1637284D01*
X5463286Y-1443228D02*
G01*
X5537200Y-1637284D01*
X5417058Y-1572513D02*
G01*
X5509513Y-1572513D01*
X5598159Y-1443228D02*
G01*
X5598159Y-1637284D01*
X5598159Y-1443228D02*
G01*
X5681218Y-1443228D01*
X5708904Y-1452371D01*
X5718047Y-1461770D01*
X5727445Y-1480312D01*
X5727445Y-1498600D01*
X5718047Y-1517142D01*
X5708904Y-1526286D01*
X5681218Y-1535684D01*
X5598159Y-1535684D02*
G01*
X5681218Y-1535684D01*
X5708904Y-1544828D01*
X5718047Y-1553971D01*
X5727445Y-1572513D01*
X5727445Y-1600200D01*
X5718047Y-1618742D01*
X5708904Y-1627886D01*
X5681218Y-1637284D01*
X5598159Y-1637284D01*
X5788406Y-1443228D02*
G01*
X5788406Y-1637284D01*
X5788406Y-1637284D02*
G01*
X5899150Y-1637284D01*
X5960109Y-1443228D02*
G01*
X5960109Y-1637284D01*
X5960109Y-1443228D02*
G01*
X6080252Y-1443228D01*
X5960109Y-1535684D02*
G01*
X6034024Y-1535684D01*
X5960109Y-1637284D02*
G01*
X6080252Y-1637284D01*
X6412738Y-1470913D02*
G01*
X6394195Y-1452371D01*
X6366509Y-1443228D01*
X6329679Y-1443228D01*
X6301993Y-1452371D01*
X6283452Y-1470913D01*
X6283452Y-1489455D01*
X6292595Y-1507997D01*
X6301993Y-1517142D01*
X6320281Y-1526286D01*
X6375908Y-1544828D01*
X6394195Y-1553971D01*
X6403593Y-1563370D01*
X6412738Y-1581912D01*
X6412738Y-1609597D01*
X6394195Y-1627886D01*
X6366509Y-1637284D01*
X6329679Y-1637284D01*
X6301993Y-1627886D01*
X6283452Y-1609597D01*
X6538468Y-1443228D02*
G01*
X6538468Y-1637284D01*
X6473697Y-1443228D02*
G01*
X6602984Y-1443228D01*
X6663943Y-1443228D02*
G01*
X6663943Y-1637284D01*
X6663943Y-1443228D02*
G01*
X6784086Y-1443228D01*
X6663943Y-1535684D02*
G01*
X6737858Y-1535684D01*
X6663943Y-1637284D02*
G01*
X6784086Y-1637284D01*
X6845045Y-1443228D02*
G01*
X6845045Y-1637284D01*
X6845045Y-1443228D02*
G01*
X6928104Y-1443228D01*
X6955790Y-1452371D01*
X6965188Y-1461770D01*
X6974331Y-1480312D01*
X6974331Y-1507997D01*
X6965188Y-1526286D01*
X6955790Y-1535684D01*
X6928104Y-1544828D01*
X6845045Y-1544828D01*
X7177531Y-1443228D02*
G01*
X7177531Y-1637284D01*
X7177531Y-1443228D02*
G01*
X7242047Y-1443228D01*
X7269988Y-1452371D01*
X7288275Y-1470913D01*
X7297674Y-1489455D01*
X7306818Y-1517142D01*
X7306818Y-1563370D01*
X7297674Y-1591055D01*
X7288275Y-1609597D01*
X7269988Y-1627886D01*
X7242047Y-1637284D01*
X7177531Y-1637284D01*
X7423150Y-1443228D02*
G01*
X7404608Y-1452371D01*
X7386320Y-1470913D01*
X7376922Y-1489455D01*
X7367777Y-1517142D01*
X7367777Y-1563370D01*
X7376922Y-1591055D01*
X7386320Y-1609597D01*
X7404608Y-1627886D01*
X7423150Y-1637284D01*
X7460234Y-1637284D01*
X7478522Y-1627886D01*
X7497063Y-1609597D01*
X7506208Y-1591055D01*
X7515606Y-1563370D01*
X7515606Y-1517142D01*
X7506208Y-1489455D01*
X7497063Y-1470913D01*
X7478522Y-1452371D01*
X7460234Y-1443228D01*
X7423150Y-1443228D01*
X7576565Y-1443228D02*
G01*
X7622793Y-1637284D01*
X7668768Y-1443228D02*
G01*
X7622793Y-1637284D01*
X7668768Y-1443228D02*
G01*
X7714995Y-1637284D01*
X7761224Y-1443228D02*
G01*
X7714995Y-1637284D01*
X7822184Y-1443228D02*
G01*
X7822184Y-1637284D01*
X7822184Y-1443228D02*
G01*
X7951470Y-1637284D01*
X7951470Y-1443228D02*
G01*
X7951470Y-1637284D01*
X5416118Y-1093355D02*
G01*
X5416118Y-1287157D01*
X5416118Y-1287157D02*
G01*
X5527116Y-1287157D01*
X5588076Y-1093355D02*
G01*
X5588076Y-1287157D01*
X5588076Y-1093355D02*
G01*
X5661990Y-1287157D01*
X5735650Y-1093355D02*
G01*
X5661990Y-1287157D01*
X5735650Y-1093355D02*
G01*
X5735650Y-1287157D01*
X5806008Y-1139329D02*
G01*
X5806008Y-1130185D01*
X5815152Y-1111643D01*
X5824550Y-1102499D01*
X5842838Y-1093355D01*
X5879922Y-1093355D01*
X5898210Y-1102499D01*
X5907608Y-1111643D01*
X5916752Y-1130185D01*
X5916752Y-1148727D01*
X5907608Y-1167015D01*
X5889066Y-1194955D01*
X5796610Y-1287157D01*
X5926150Y-1287157D01*
X6097854Y-1093355D02*
G01*
X6005398Y-1093355D01*
X5996254Y-1176413D01*
X6005398Y-1167015D01*
X6033084Y-1157871D01*
X6060770Y-1157871D01*
X6088710Y-1167015D01*
X6106998Y-1185557D01*
X6116396Y-1213243D01*
X6116396Y-1231785D01*
X6106998Y-1259471D01*
X6088710Y-1278013D01*
X6060770Y-1287157D01*
X6033084Y-1287157D01*
X6005398Y-1278013D01*
X5996254Y-1268615D01*
X5987110Y-1250327D01*
X6297244Y-1157871D02*
G01*
X6288100Y-1185557D01*
X6269558Y-1204099D01*
X6241872Y-1213243D01*
X6232728Y-1213243D01*
X6205042Y-1204099D01*
X6186500Y-1185557D01*
X6177356Y-1157871D01*
X6177356Y-1148727D01*
X6186500Y-1121041D01*
X6205042Y-1102499D01*
X6232728Y-1093355D01*
X6241872Y-1093355D01*
X6269558Y-1102499D01*
X6288100Y-1121041D01*
X6297244Y-1157871D01*
X6297244Y-1204099D01*
X6288100Y-1250327D01*
X6269558Y-1278013D01*
X6241872Y-1287157D01*
X6223330Y-1287157D01*
X6195644Y-1278013D01*
X6186500Y-1259471D01*
X6469202Y-1121041D02*
G01*
X6459804Y-1102499D01*
X6432118Y-1093355D01*
X6413830Y-1093355D01*
X6385890Y-1102499D01*
X6367602Y-1130185D01*
X6358204Y-1176413D01*
X6358204Y-1222641D01*
X6367602Y-1259471D01*
X6385890Y-1278013D01*
X6413830Y-1287157D01*
X6422974Y-1287157D01*
X6450660Y-1278013D01*
X6469202Y-1259471D01*
X6478346Y-1231785D01*
X6478346Y-1222641D01*
X6469202Y-1194955D01*
X6450660Y-1176413D01*
X6422974Y-1167015D01*
X6413830Y-1167015D01*
X6385890Y-1176413D01*
X6367602Y-1194955D01*
X6358204Y-1222641D01*
X4566183Y-1743202D02*
G01*
X4640097Y-1937257D01*
X4714011Y-1743202D02*
G01*
X4640097Y-1937257D01*
X4830343Y-1743202D02*
G01*
X4811801Y-1752600D01*
X4793513Y-1770887D01*
X4784115Y-1789429D01*
X4774971Y-1817115D01*
X4774971Y-1863344D01*
X4784115Y-1891029D01*
X4793513Y-1909571D01*
X4811801Y-1927860D01*
X4830343Y-1937257D01*
X4867427Y-1937257D01*
X4885715Y-1927860D01*
X4904257Y-1909571D01*
X4913401Y-1891029D01*
X4922799Y-1863344D01*
X4922799Y-1817115D01*
X4913401Y-1789429D01*
X4904257Y-1770887D01*
X4885715Y-1752600D01*
X4867427Y-1743202D01*
X4830343Y-1743202D01*
X4983759Y-1743202D02*
G01*
X4983759Y-1937257D01*
X4983759Y-1937257D02*
G01*
X5094503Y-1937257D01*
X5220233Y-1743202D02*
G01*
X5220233Y-1937257D01*
X5155463Y-1743202D02*
G01*
X5284749Y-1743202D01*
X5419623Y-1743202D02*
G01*
X5345709Y-1937257D01*
X5419623Y-1743202D02*
G01*
X5493537Y-1937257D01*
X5373395Y-1872487D02*
G01*
X5465851Y-1872487D01*
X5692927Y-1789429D02*
G01*
X5683783Y-1770887D01*
X5665241Y-1752600D01*
X5646953Y-1743202D01*
X5609869Y-1743202D01*
X5591327Y-1752600D01*
X5573039Y-1770887D01*
X5563641Y-1789429D01*
X5554497Y-1817115D01*
X5554497Y-1863344D01*
X5563641Y-1891029D01*
X5573039Y-1909571D01*
X5591327Y-1927860D01*
X5609869Y-1937257D01*
X5646953Y-1937257D01*
X5665241Y-1927860D01*
X5683783Y-1909571D01*
X5692927Y-1891029D01*
X5692927Y-1863344D01*
X5646953Y-1863344D02*
G01*
X5692927Y-1863344D01*
X5753887Y-1743202D02*
G01*
X5753887Y-1937257D01*
X5753887Y-1743202D02*
G01*
X5874029Y-1743202D01*
X5753887Y-1835657D02*
G01*
X5827801Y-1835657D01*
X5753887Y-1937257D02*
G01*
X5874029Y-1937257D01*
X6077229Y-1743202D02*
G01*
X6077229Y-1937257D01*
X6077229Y-1743202D02*
G01*
X6160287Y-1743202D01*
X6188227Y-1752600D01*
X6197371Y-1761744D01*
X6206515Y-1780286D01*
X6206515Y-1798573D01*
X6197371Y-1817115D01*
X6188227Y-1826260D01*
X6160287Y-1835657D01*
X6077229Y-1835657D01*
X6141999Y-1835657D02*
G01*
X6206515Y-1937257D01*
X6267475Y-1743202D02*
G01*
X6267475Y-1937257D01*
X6267475Y-1743202D02*
G01*
X6387617Y-1743202D01*
X6267475Y-1835657D02*
G01*
X6341389Y-1835657D01*
X6267475Y-1937257D02*
G01*
X6387617Y-1937257D01*
X6587007Y-1789429D02*
G01*
X6577863Y-1770887D01*
X6559321Y-1752600D01*
X6541033Y-1743202D01*
X6503949Y-1743202D01*
X6485407Y-1752600D01*
X6467119Y-1770887D01*
X6457721Y-1789429D01*
X6448577Y-1817115D01*
X6448577Y-1863344D01*
X6457721Y-1891029D01*
X6467119Y-1909571D01*
X6485407Y-1927860D01*
X6503949Y-1937257D01*
X6541033Y-1937257D01*
X6559321Y-1927860D01*
X6577863Y-1909571D01*
X6587007Y-1891029D01*
X6587007Y-1863344D01*
X6541033Y-1863344D02*
G01*
X6587007Y-1863344D01*
X6647967Y-1743202D02*
G01*
X6647967Y-1881886D01*
X6657365Y-1909571D01*
X6675907Y-1927860D01*
X6703593Y-1937257D01*
X6721881Y-1937257D01*
X6749567Y-1927860D01*
X6768109Y-1909571D01*
X6777507Y-1881886D01*
X6777507Y-1743202D01*
X6838467Y-1743202D02*
G01*
X6838467Y-1937257D01*
X6838467Y-1937257D02*
G01*
X6949211Y-1937257D01*
X7084085Y-1743202D02*
G01*
X7010171Y-1937257D01*
X7084085Y-1743202D02*
G01*
X7157999Y-1937257D01*
X7037857Y-1872487D02*
G01*
X7130313Y-1872487D01*
X7283475Y-1743202D02*
G01*
X7283475Y-1937257D01*
X7218959Y-1743202D02*
G01*
X7348245Y-1743202D01*
X7464577Y-1743202D02*
G01*
X7446035Y-1752600D01*
X7427747Y-1770887D01*
X7418349Y-1789429D01*
X7409205Y-1817115D01*
X7409205Y-1863344D01*
X7418349Y-1891029D01*
X7427747Y-1909571D01*
X7446035Y-1927860D01*
X7464577Y-1937257D01*
X7501407Y-1937257D01*
X7519949Y-1927860D01*
X7538491Y-1909571D01*
X7547635Y-1891029D01*
X7557033Y-1863344D01*
X7557033Y-1817115D01*
X7547635Y-1789429D01*
X7538491Y-1770887D01*
X7519949Y-1752600D01*
X7501407Y-1743202D01*
X7464577Y-1743202D01*
X7617993Y-1743202D02*
G01*
X7617993Y-1937257D01*
X7617993Y-1743202D02*
G01*
X7701051Y-1743202D01*
X7728737Y-1752600D01*
X7737881Y-1761744D01*
X7747279Y-1780286D01*
X7747279Y-1798573D01*
X7737881Y-1817115D01*
X7728737Y-1826260D01*
X7701051Y-1835657D01*
X7617993Y-1835657D01*
X7682509Y-1835657D02*
G01*
X7747279Y-1937257D01*
D10*
X8991600Y-392684D02*
G01*
X8991600Y-470662D01*
X8996679Y-486155D01*
X9007093Y-496570D01*
X9022841Y-501650D01*
X9033256Y-501650D01*
X9048750Y-496570D01*
X9059163Y-486155D01*
X9064243Y-470662D01*
X9064243Y-392684D01*
X9103868Y-418592D02*
G01*
X9103868Y-413512D01*
X9108947Y-403097D01*
X9114281Y-397763D01*
X9124695Y-392684D01*
X9145270Y-392684D01*
X9155684Y-397763D01*
X9161018Y-403097D01*
X9166097Y-413512D01*
X9166097Y-423926D01*
X9161018Y-434339D01*
X9150604Y-449834D01*
X9098534Y-501650D01*
X9171431Y-501650D01*
D12*
X7103490Y-3631463D02*
G01*
X7103490Y-3726967D01*
X7103490Y-3631463D02*
G01*
X7144384Y-3631463D01*
X7158100Y-3636035D01*
X7162672Y-3640607D01*
X7167245Y-3649497D01*
X7167245Y-3663213D01*
X7162672Y-3672357D01*
X7158100Y-3676929D01*
X7144384Y-3681501D01*
X7103490Y-3681501D01*
X7265288Y-3654069D02*
G01*
X7260716Y-3644925D01*
X7251572Y-3636035D01*
X7242683Y-3631463D01*
X7224395Y-3631463D01*
X7215250Y-3636035D01*
X7206106Y-3644925D01*
X7201788Y-3654069D01*
X7197216Y-3667785D01*
X7197216Y-3690391D01*
X7201788Y-3704107D01*
X7206106Y-3713251D01*
X7215250Y-3722395D01*
X7224395Y-3726967D01*
X7242683Y-3726967D01*
X7251572Y-3722395D01*
X7260716Y-3713251D01*
X7265288Y-3704107D01*
X7331583Y-3631463D02*
G01*
X7295261Y-3726967D01*
X7331583Y-3631463D02*
G01*
X7368159Y-3726967D01*
X7308977Y-3694963D02*
G01*
X7354443Y-3694963D01*
X7457059Y-3663213D02*
G01*
X7452486Y-3676929D01*
X7443597Y-3685819D01*
X7429881Y-3690391D01*
X7425309Y-3690391D01*
X7411593Y-3685819D01*
X7402702Y-3676929D01*
X7398131Y-3663213D01*
X7398131Y-3658641D01*
X7402702Y-3644925D01*
X7411593Y-3636035D01*
X7425309Y-3631463D01*
X7429881Y-3631463D01*
X7443597Y-3636035D01*
X7452486Y-3644925D01*
X7457059Y-3663213D01*
X7457059Y-3685819D01*
X7452486Y-3708679D01*
X7443597Y-3722395D01*
X7429881Y-3726967D01*
X7420736Y-3726967D01*
X7407020Y-3722395D01*
X7402702Y-3713251D01*
X7541640Y-3644925D02*
G01*
X7537068Y-3636035D01*
X7523606Y-3631463D01*
X7514463Y-3631463D01*
X7500747Y-3636035D01*
X7491602Y-3649497D01*
X7487031Y-3672357D01*
X7487031Y-3694963D01*
X7491602Y-3713251D01*
X7500747Y-3722395D01*
X7514463Y-3726967D01*
X7519034Y-3726967D01*
X7532497Y-3722395D01*
X7541640Y-3713251D01*
X7546213Y-3699535D01*
X7546213Y-3694963D01*
X7541640Y-3681501D01*
X7532497Y-3672357D01*
X7519034Y-3667785D01*
X7514463Y-3667785D01*
X7500747Y-3672357D01*
X7491602Y-3681501D01*
X7487031Y-3694963D01*
X7599045Y-3631463D02*
G01*
X7585329Y-3636035D01*
X7580756Y-3644925D01*
X7580756Y-3654069D01*
X7585329Y-3663213D01*
X7594472Y-3667785D01*
X7612506Y-3672357D01*
X7626222Y-3676929D01*
X7635366Y-3685819D01*
X7639938Y-3694963D01*
X7639938Y-3708679D01*
X7635366Y-3717823D01*
X7630795Y-3722395D01*
X7617079Y-3726967D01*
X7599045Y-3726967D01*
X7585329Y-3722395D01*
X7580756Y-3717823D01*
X7576184Y-3708679D01*
X7576184Y-3694963D01*
X7580756Y-3685819D01*
X7589900Y-3676929D01*
X7603616Y-3672357D01*
X7621650Y-3667785D01*
X7630795Y-3663213D01*
X7635366Y-3654069D01*
X7635366Y-3644925D01*
X7630795Y-3636035D01*
X7617079Y-3631463D01*
X7599045Y-3631463D01*
X7724520Y-3631463D02*
G01*
X7679054Y-3631463D01*
X7674483Y-3672357D01*
X7679054Y-3667785D01*
X7692516Y-3663213D01*
X7706233Y-3663213D01*
X7719949Y-3667785D01*
X7728838Y-3676929D01*
X7733411Y-3690391D01*
X7733411Y-3699535D01*
X7728838Y-3713251D01*
X7719949Y-3722395D01*
X7706233Y-3726967D01*
X7692516Y-3726967D01*
X7679054Y-3722395D01*
X7674483Y-3717823D01*
X7669911Y-3708679D01*
X6887590Y-3839997D02*
G01*
X6896734Y-3835425D01*
X6910197Y-3821963D01*
X6910197Y-3917467D01*
X6994779Y-3835425D02*
G01*
X6990206Y-3826535D01*
X6976745Y-3821963D01*
X6967600Y-3821963D01*
X6953884Y-3826535D01*
X6944740Y-3839997D01*
X6940422Y-3862857D01*
X6940422Y-3885463D01*
X6944740Y-3903751D01*
X6953884Y-3912895D01*
X6967600Y-3917467D01*
X6972172Y-3917467D01*
X6985888Y-3912895D01*
X6994779Y-3903751D01*
X6999350Y-3890035D01*
X6999350Y-3885463D01*
X6994779Y-3872001D01*
X6985888Y-3862857D01*
X6972172Y-3858285D01*
X6967600Y-3858285D01*
X6953884Y-3862857D01*
X6944740Y-3872001D01*
X6940422Y-3885463D01*
X7099427Y-3853713D02*
G01*
X7149465Y-3917467D01*
X7149465Y-3853713D02*
G01*
X7099427Y-3917467D01*
X7249286Y-3839997D02*
G01*
X7258431Y-3835425D01*
X7272147Y-3821963D01*
X7272147Y-3917467D01*
X7306690Y-3844569D02*
G01*
X7306690Y-3839997D01*
X7311263Y-3831107D01*
X7315834Y-3826535D01*
X7324979Y-3821963D01*
X7343013Y-3821963D01*
X7352156Y-3826535D01*
X7356729Y-3831107D01*
X7361300Y-3839997D01*
X7361300Y-3849141D01*
X7356729Y-3858285D01*
X7347584Y-3872001D01*
X7302118Y-3917467D01*
X7365872Y-3917467D01*
X7395845Y-3876319D02*
G01*
X7477633Y-3876319D01*
X7507604Y-3821963D02*
G01*
X7507604Y-3917467D01*
X7507604Y-3867429D02*
G01*
X7516749Y-3858285D01*
X7525893Y-3853713D01*
X7539354Y-3853713D01*
X7548499Y-3858285D01*
X7557643Y-3867429D01*
X7562215Y-3880891D01*
X7562215Y-3890035D01*
X7557643Y-3903751D01*
X7548499Y-3912895D01*
X7539354Y-3917467D01*
X7525893Y-3917467D01*
X7516749Y-3912895D01*
X7507604Y-3903751D01*
X7592186Y-3821963D02*
G01*
X7596759Y-3826535D01*
X7601331Y-3821963D01*
X7596759Y-3817391D01*
X7592186Y-3821963D01*
X7596759Y-3853713D02*
G01*
X7596759Y-3917467D01*
X7644765Y-3821963D02*
G01*
X7644765Y-3899179D01*
X7649336Y-3912895D01*
X7658481Y-3917467D01*
X7667625Y-3917467D01*
X7631302Y-3853713D02*
G01*
X7663052Y-3853713D01*
X7767700Y-3821963D02*
G01*
X7767700Y-3917467D01*
X7767700Y-3821963D02*
G01*
X7808595Y-3821963D01*
X7822056Y-3826535D01*
X7826629Y-3831107D01*
X7831200Y-3839997D01*
X7831200Y-3853713D01*
X7826629Y-3862857D01*
X7822056Y-3867429D01*
X7808595Y-3872001D01*
X7767700Y-3872001D01*
X7861172Y-3821963D02*
G01*
X7884033Y-3917467D01*
X7906638Y-3821963D02*
G01*
X7884033Y-3917467D01*
X7906638Y-3821963D02*
G01*
X7929499Y-3917467D01*
X7952104Y-3821963D02*
G01*
X7929499Y-3917467D01*
X7982077Y-3821963D02*
G01*
X7982077Y-3917467D01*
X7982077Y-3821963D02*
G01*
X8018399Y-3917467D01*
X8054975Y-3821963D02*
G01*
X8018399Y-3917467D01*
X8054975Y-3821963D02*
G01*
X8054975Y-3917467D01*
X8763000Y-5436362D02*
G01*
X8763000Y-5531865D01*
X8763000Y-5436362D02*
G01*
X8803893Y-5436362D01*
X8817609Y-5440934D01*
X8822181Y-5445505D01*
X8826754Y-5454395D01*
X8826754Y-5468112D01*
X8822181Y-5477255D01*
X8817609Y-5481828D01*
X8803893Y-5486400D01*
X8763000Y-5486400D01*
X8856725Y-5436362D02*
G01*
X8879331Y-5531865D01*
X8902191Y-5436362D02*
G01*
X8879331Y-5531865D01*
X8902191Y-5436362D02*
G01*
X8924797Y-5531865D01*
X8947658Y-5436362D02*
G01*
X8924797Y-5531865D01*
X8977629Y-5436362D02*
G01*
X8977629Y-5531865D01*
X8977629Y-5436362D02*
G01*
X9013952Y-5531865D01*
X9050274Y-5436362D02*
G01*
X9013952Y-5531865D01*
X9050274Y-5436362D02*
G01*
X9050274Y-5531865D01*
X8763000Y-5637784D02*
G01*
X8799322Y-5733287D01*
X8835643Y-5637784D02*
G01*
X8799322Y-5733287D01*
X8906509Y-5651500D02*
G01*
X8906509Y-5733287D01*
X8865615Y-5692394D02*
G01*
X8947658Y-5692394D01*
X8831072Y-5862320D02*
G01*
X8826754Y-5853176D01*
X8817609Y-5844031D01*
X8808465Y-5839460D01*
X8790177Y-5839460D01*
X8781288Y-5844031D01*
X8772143Y-5853176D01*
X8767572Y-5862320D01*
X8763000Y-5875781D01*
X8763000Y-5898642D01*
X8767572Y-5912104D01*
X8772143Y-5921247D01*
X8781288Y-5930392D01*
X8790177Y-5934963D01*
X8808465Y-5934963D01*
X8817609Y-5930392D01*
X8826754Y-5921247D01*
X8831072Y-5912104D01*
X8831072Y-5898642D01*
X8808465Y-5898642D02*
G01*
X8831072Y-5898642D01*
X8861297Y-5839460D02*
G01*
X8861297Y-5934963D01*
X8861297Y-5839460D02*
G01*
X8924797Y-5934963D01*
X8924797Y-5839460D02*
G01*
X8924797Y-5934963D01*
X8954770Y-5839460D02*
G01*
X8954770Y-5934963D01*
X8954770Y-5839460D02*
G01*
X8986520Y-5839460D01*
X9000236Y-5844031D01*
X9009379Y-5853176D01*
X9013952Y-5862320D01*
X9018524Y-5875781D01*
X9018524Y-5898642D01*
X9013952Y-5912104D01*
X9009379Y-5921247D01*
X9000236Y-5930392D01*
X8986520Y-5934963D01*
X8954770Y-5934963D01*
X11574272Y-3528568D02*
G01*
X11569954Y-3519423D01*
X11560809Y-3510534D01*
X11551665Y-3505962D01*
X11533377Y-3505962D01*
X11524488Y-3510534D01*
X11515343Y-3519423D01*
X11510772Y-3528568D01*
X11506200Y-3542284D01*
X11506200Y-3564889D01*
X11510772Y-3578605D01*
X11515343Y-3587750D01*
X11524488Y-3596894D01*
X11533377Y-3601465D01*
X11551665Y-3601465D01*
X11560809Y-3596894D01*
X11569954Y-3587750D01*
X11574272Y-3578605D01*
X11574272Y-3564889D01*
X11551665Y-3564889D02*
G01*
X11574272Y-3564889D01*
X11604497Y-3505962D02*
G01*
X11604497Y-3601465D01*
X11604497Y-3505962D02*
G01*
X11667997Y-3601465D01*
X11667997Y-3505962D02*
G01*
X11667997Y-3601465D01*
X11697970Y-3505962D02*
G01*
X11697970Y-3601465D01*
X11697970Y-3505962D02*
G01*
X11729720Y-3505962D01*
X11743436Y-3510534D01*
X11752579Y-3519423D01*
X11757152Y-3528568D01*
X11761724Y-3542284D01*
X11761724Y-3564889D01*
X11757152Y-3578605D01*
X11752579Y-3587750D01*
X11743436Y-3596894D01*
X11729720Y-3601465D01*
X11697970Y-3601465D01*
X11609577Y-3759962D02*
G01*
X11600688Y-3764534D01*
X11591543Y-3773423D01*
X11586972Y-3782568D01*
X11582400Y-3796284D01*
X11582400Y-3818889D01*
X11586972Y-3832605D01*
X11591543Y-3841750D01*
X11600688Y-3850894D01*
X11609577Y-3855465D01*
X11627865Y-3855465D01*
X11637009Y-3850894D01*
X11646154Y-3841750D01*
X11650472Y-3832605D01*
X11655043Y-3818889D01*
X11655043Y-3796284D01*
X11650472Y-3782568D01*
X11646154Y-3773423D01*
X11637009Y-3764534D01*
X11627865Y-3759962D01*
X11609577Y-3759962D01*
X11685015Y-3759962D02*
G01*
X11685015Y-3855465D01*
X11685015Y-3759962D02*
G01*
X11744197Y-3759962D01*
X11685015Y-3805428D02*
G01*
X11721591Y-3805428D01*
X11685015Y-3855465D02*
G01*
X11744197Y-3855465D01*
X11582654Y-4027423D02*
G01*
X11573509Y-4018534D01*
X11559793Y-4013962D01*
X11541506Y-4013962D01*
X11528043Y-4018534D01*
X11518900Y-4027423D01*
X11518900Y-4036568D01*
X11523472Y-4045712D01*
X11528043Y-4050284D01*
X11537188Y-4054855D01*
X11564365Y-4064000D01*
X11573509Y-4068318D01*
X11578081Y-4072889D01*
X11582654Y-4082034D01*
X11582654Y-4095750D01*
X11573509Y-4104894D01*
X11559793Y-4109465D01*
X11541506Y-4109465D01*
X11528043Y-4104894D01*
X11518900Y-4095750D01*
X11680697Y-4036568D02*
G01*
X11676125Y-4027423D01*
X11666981Y-4018534D01*
X11658091Y-4013962D01*
X11639804Y-4013962D01*
X11630659Y-4018534D01*
X11621515Y-4027423D01*
X11617197Y-4036568D01*
X11612625Y-4050284D01*
X11612625Y-4072889D01*
X11617197Y-4086605D01*
X11621515Y-4095750D01*
X11630659Y-4104894D01*
X11639804Y-4109465D01*
X11658091Y-4109465D01*
X11666981Y-4104894D01*
X11676125Y-4095750D01*
X11680697Y-4086605D01*
X11710670Y-4013962D02*
G01*
X11710670Y-4109465D01*
X11710670Y-4109465D02*
G01*
X11765279Y-4109465D01*
X11569954Y-4268723D02*
G01*
X11560809Y-4259834D01*
X11547093Y-4255262D01*
X11528806Y-4255262D01*
X11515343Y-4259834D01*
X11506200Y-4268723D01*
X11506200Y-4277868D01*
X11510772Y-4287012D01*
X11515343Y-4291584D01*
X11524488Y-4296155D01*
X11551665Y-4305300D01*
X11560809Y-4309618D01*
X11565381Y-4314189D01*
X11569954Y-4323334D01*
X11569954Y-4337050D01*
X11560809Y-4346194D01*
X11547093Y-4350765D01*
X11528806Y-4350765D01*
X11515343Y-4346194D01*
X11506200Y-4337050D01*
X11599925Y-4255262D02*
G01*
X11599925Y-4350765D01*
X11599925Y-4255262D02*
G01*
X11631675Y-4255262D01*
X11645391Y-4259834D01*
X11654281Y-4268723D01*
X11658854Y-4277868D01*
X11663425Y-4291584D01*
X11663425Y-4314189D01*
X11658854Y-4327905D01*
X11654281Y-4337050D01*
X11645391Y-4346194D01*
X11631675Y-4350765D01*
X11599925Y-4350765D01*
X11729720Y-4255262D02*
G01*
X11693397Y-4350765D01*
X11729720Y-4255262D02*
G01*
X11766295Y-4350765D01*
X11707113Y-4318762D02*
G01*
X11752579Y-4318762D01*
X11506200Y-4496562D02*
G01*
X11542522Y-4592065D01*
X11578843Y-4496562D02*
G01*
X11542522Y-4592065D01*
X11677141Y-4519168D02*
G01*
X11672570Y-4510023D01*
X11663425Y-4501134D01*
X11654281Y-4496562D01*
X11636247Y-4496562D01*
X11627104Y-4501134D01*
X11617959Y-4510023D01*
X11613388Y-4519168D01*
X11608815Y-4532884D01*
X11608815Y-4555489D01*
X11613388Y-4569205D01*
X11617959Y-4578350D01*
X11627104Y-4587494D01*
X11636247Y-4592065D01*
X11654281Y-4592065D01*
X11663425Y-4587494D01*
X11672570Y-4578350D01*
X11677141Y-4569205D01*
X11775186Y-4519168D02*
G01*
X11770868Y-4510023D01*
X11761724Y-4501134D01*
X11752579Y-4496562D01*
X11734291Y-4496562D01*
X11725402Y-4501134D01*
X11716258Y-4510023D01*
X11711686Y-4519168D01*
X11707113Y-4532884D01*
X11707113Y-4555489D01*
X11711686Y-4569205D01*
X11716258Y-4578350D01*
X11725402Y-4587494D01*
X11734291Y-4592065D01*
X11752579Y-4592065D01*
X11761724Y-4587494D01*
X11770868Y-4578350D01*
X11775186Y-4569205D01*
X11599290Y-4710963D02*
G01*
X11635613Y-4806467D01*
X11671934Y-4710963D02*
G01*
X11635613Y-4806467D01*
X11742800Y-4724425D02*
G01*
X11742800Y-4806467D01*
X11701906Y-4765319D02*
G01*
X11783949Y-4765319D01*
X6303390Y-4749063D02*
G01*
X6339713Y-4844567D01*
X6376034Y-4749063D02*
G01*
X6339713Y-4844567D01*
X6446900Y-4762525D02*
G01*
X6446900Y-4844567D01*
X6406006Y-4803419D02*
G01*
X6488049Y-4803419D01*
X6303390Y-4520463D02*
G01*
X6339713Y-4615967D01*
X6376034Y-4520463D02*
G01*
X6339713Y-4615967D01*
X6474333Y-4543069D02*
G01*
X6469761Y-4533925D01*
X6460616Y-4525035D01*
X6451472Y-4520463D01*
X6433438Y-4520463D01*
X6424295Y-4525035D01*
X6415150Y-4533925D01*
X6410579Y-4543069D01*
X6406006Y-4556785D01*
X6406006Y-4579391D01*
X6410579Y-4593107D01*
X6415150Y-4602251D01*
X6424295Y-4611395D01*
X6433438Y-4615967D01*
X6451472Y-4615967D01*
X6460616Y-4611395D01*
X6469761Y-4602251D01*
X6474333Y-4593107D01*
X6572377Y-4543069D02*
G01*
X6568059Y-4533925D01*
X6558915Y-4525035D01*
X6549770Y-4520463D01*
X6531483Y-4520463D01*
X6522593Y-4525035D01*
X6513449Y-4533925D01*
X6508877Y-4543069D01*
X6504304Y-4556785D01*
X6504304Y-4579391D01*
X6508877Y-4593107D01*
X6513449Y-4602251D01*
X6522593Y-4611395D01*
X6531483Y-4615967D01*
X6549770Y-4615967D01*
X6558915Y-4611395D01*
X6568059Y-4602251D01*
X6572377Y-4593107D01*
X6367145Y-4267225D02*
G01*
X6358000Y-4258335D01*
X6344284Y-4253763D01*
X6325997Y-4253763D01*
X6312534Y-4258335D01*
X6303390Y-4267225D01*
X6303390Y-4276369D01*
X6307963Y-4285513D01*
X6312534Y-4290085D01*
X6321679Y-4294657D01*
X6348856Y-4303801D01*
X6358000Y-4308119D01*
X6362572Y-4312691D01*
X6367145Y-4321835D01*
X6367145Y-4335551D01*
X6358000Y-4344695D01*
X6344284Y-4349267D01*
X6325997Y-4349267D01*
X6312534Y-4344695D01*
X6303390Y-4335551D01*
X6397116Y-4253763D02*
G01*
X6397116Y-4349267D01*
X6397116Y-4253763D02*
G01*
X6428866Y-4253763D01*
X6442583Y-4258335D01*
X6451472Y-4267225D01*
X6456045Y-4276369D01*
X6460616Y-4290085D01*
X6460616Y-4312691D01*
X6456045Y-4326407D01*
X6451472Y-4335551D01*
X6442583Y-4344695D01*
X6428866Y-4349267D01*
X6397116Y-4349267D01*
X6526911Y-4253763D02*
G01*
X6490588Y-4349267D01*
X6526911Y-4253763D02*
G01*
X6563486Y-4349267D01*
X6504304Y-4317263D02*
G01*
X6549770Y-4317263D01*
X6367145Y-4025925D02*
G01*
X6358000Y-4017035D01*
X6344284Y-4012463D01*
X6325997Y-4012463D01*
X6312534Y-4017035D01*
X6303390Y-4025925D01*
X6303390Y-4035069D01*
X6307963Y-4044213D01*
X6312534Y-4048785D01*
X6321679Y-4053357D01*
X6348856Y-4062501D01*
X6358000Y-4066819D01*
X6362572Y-4071391D01*
X6367145Y-4080535D01*
X6367145Y-4094251D01*
X6358000Y-4103395D01*
X6344284Y-4107967D01*
X6325997Y-4107967D01*
X6312534Y-4103395D01*
X6303390Y-4094251D01*
X6465188Y-4035069D02*
G01*
X6460616Y-4025925D01*
X6451472Y-4017035D01*
X6442583Y-4012463D01*
X6424295Y-4012463D01*
X6415150Y-4017035D01*
X6406006Y-4025925D01*
X6401688Y-4035069D01*
X6397116Y-4048785D01*
X6397116Y-4071391D01*
X6401688Y-4085107D01*
X6406006Y-4094251D01*
X6415150Y-4103395D01*
X6424295Y-4107967D01*
X6442583Y-4107967D01*
X6451472Y-4103395D01*
X6460616Y-4094251D01*
X6465188Y-4085107D01*
X6495161Y-4012463D02*
G01*
X6495161Y-4107967D01*
X6495161Y-4107967D02*
G01*
X6549770Y-4107967D01*
X6317868Y-3758463D02*
G01*
X6308979Y-3763035D01*
X6299834Y-3771925D01*
X6295263Y-3781069D01*
X6290690Y-3794785D01*
X6290690Y-3817391D01*
X6295263Y-3831107D01*
X6299834Y-3840251D01*
X6308979Y-3849395D01*
X6317868Y-3853967D01*
X6336156Y-3853967D01*
X6345300Y-3849395D01*
X6354445Y-3840251D01*
X6358763Y-3831107D01*
X6363334Y-3817391D01*
X6363334Y-3794785D01*
X6358763Y-3781069D01*
X6354445Y-3771925D01*
X6345300Y-3763035D01*
X6336156Y-3758463D01*
X6317868Y-3758463D01*
X6393306Y-3758463D02*
G01*
X6393306Y-3853967D01*
X6393306Y-3758463D02*
G01*
X6452488Y-3758463D01*
X6393306Y-3803929D02*
G01*
X6429883Y-3803929D01*
X6393306Y-3853967D02*
G01*
X6452488Y-3853967D01*
X6392672Y-3566668D02*
G01*
X6388354Y-3557523D01*
X6379209Y-3548634D01*
X6370065Y-3544062D01*
X6351777Y-3544062D01*
X6342888Y-3548634D01*
X6333743Y-3557523D01*
X6329172Y-3566668D01*
X6324600Y-3580384D01*
X6324600Y-3602989D01*
X6329172Y-3616705D01*
X6333743Y-3625850D01*
X6342888Y-3634994D01*
X6351777Y-3639565D01*
X6370065Y-3639565D01*
X6379209Y-3634994D01*
X6388354Y-3625850D01*
X6392672Y-3616705D01*
X6392672Y-3602989D01*
X6370065Y-3602989D02*
G01*
X6392672Y-3602989D01*
X6422897Y-3544062D02*
G01*
X6422897Y-3639565D01*
X6422897Y-3544062D02*
G01*
X6486397Y-3639565D01*
X6486397Y-3544062D02*
G01*
X6486397Y-3639565D01*
X6516370Y-3544062D02*
G01*
X6516370Y-3639565D01*
X6516370Y-3544062D02*
G01*
X6548120Y-3544062D01*
X6561836Y-3548634D01*
X6570979Y-3557523D01*
X6575552Y-3566668D01*
X6580124Y-3580384D01*
X6580124Y-3602989D01*
X6575552Y-3616705D01*
X6570979Y-3625850D01*
X6561836Y-3634994D01*
X6548120Y-3639565D01*
X6516370Y-3639565D01*
X9446768Y-3399028D02*
G01*
X9437624Y-3403345D01*
X9428734Y-3412489D01*
X9424161Y-3421634D01*
X9424161Y-3439921D01*
X9428734Y-3448812D01*
X9437624Y-3457955D01*
X9446768Y-3462528D01*
X9460484Y-3467100D01*
X9483090Y-3467100D01*
X9496806Y-3462528D01*
X9505950Y-3457955D01*
X9515093Y-3448812D01*
X9519665Y-3439921D01*
X9519665Y-3421634D01*
X9515093Y-3412489D01*
X9505950Y-3403345D01*
X9496806Y-3399028D01*
X9483090Y-3399028D01*
X9483090Y-3421634D02*
G01*
X9483090Y-3399028D01*
X9424161Y-3368802D02*
G01*
X9519665Y-3368802D01*
X9424161Y-3368802D02*
G01*
X9519665Y-3305302D01*
X9424161Y-3305302D02*
G01*
X9519665Y-3305302D01*
X9424161Y-3275329D02*
G01*
X9519665Y-3275329D01*
X9424161Y-3275329D02*
G01*
X9424161Y-3243579D01*
X9428734Y-3229863D01*
X9437624Y-3220720D01*
X9446768Y-3216147D01*
X9460484Y-3211576D01*
X9483090Y-3211576D01*
X9496806Y-3216147D01*
X9505950Y-3220720D01*
X9515093Y-3229863D01*
X9519665Y-3243579D01*
X9519665Y-3275329D01*
X8501252Y-3414801D02*
G01*
X8596756Y-3378479D01*
X8501252Y-3342157D02*
G01*
X8596756Y-3378479D01*
X8514715Y-3271291D02*
G01*
X8596756Y-3271291D01*
X8555609Y-3312185D02*
G01*
X8555609Y-3230143D01*
D11*
X9770490Y-3509797D02*
G01*
X9779634Y-3505225D01*
X9793097Y-3491763D01*
X9793097Y-3587267D01*
X9864216Y-3505225D02*
G01*
X9864216Y-3587267D01*
X9823322Y-3546119D02*
G01*
X9905111Y-3546119D01*
X9971404Y-3491763D02*
G01*
X9935083Y-3587267D01*
X9971404Y-3491763D02*
G01*
X10007727Y-3587267D01*
X9948799Y-3555263D02*
G01*
X9994011Y-3555263D01*
X10092309Y-3491763D02*
G01*
X10046843Y-3491763D01*
X10042270Y-3532657D01*
X10046843Y-3528085D01*
X10060559Y-3523513D01*
X10074020Y-3523513D01*
X10087736Y-3528085D01*
X10096881Y-3537229D01*
X10101452Y-3550691D01*
X10101452Y-3559835D01*
X10096881Y-3573551D01*
X10087736Y-3582695D01*
X10074020Y-3587267D01*
X10060559Y-3587267D01*
X10046843Y-3582695D01*
X10042270Y-3578123D01*
X10037699Y-3568979D01*
X10213213Y-3491763D02*
G01*
X10176890Y-3587267D01*
X10213213Y-3491763D02*
G01*
X10249534Y-3587267D01*
X10190606Y-3555263D02*
G01*
X10236072Y-3555263D01*
X10324972Y-3491763D02*
G01*
X10279506Y-3555263D01*
X10347833Y-3555263D01*
X10324972Y-3491763D02*
G01*
X10324972Y-3587267D01*
X10467213Y-3491763D02*
G01*
X10430890Y-3587267D01*
X10467213Y-3491763D02*
G01*
X10503534Y-3587267D01*
X10444606Y-3555263D02*
G01*
X10490072Y-3555263D01*
X10542650Y-3491763D02*
G01*
X10592688Y-3491763D01*
X10565511Y-3528085D01*
X10578972Y-3528085D01*
X10588116Y-3532657D01*
X10592688Y-3537229D01*
X10597261Y-3550691D01*
X10597261Y-3559835D01*
X10592688Y-3573551D01*
X10583545Y-3582695D01*
X10570083Y-3587267D01*
X10556366Y-3587267D01*
X10542650Y-3582695D01*
X10538079Y-3578123D01*
X10533506Y-3568979D01*
X10721213Y-3491763D02*
G01*
X10684890Y-3587267D01*
X10721213Y-3491763D02*
G01*
X10757534Y-3587267D01*
X10698606Y-3555263D02*
G01*
X10744072Y-3555263D01*
X10792079Y-3514369D02*
G01*
X10792079Y-3509797D01*
X10796650Y-3500907D01*
X10801222Y-3496335D01*
X10810366Y-3491763D01*
X10828400Y-3491763D01*
X10837545Y-3496335D01*
X10842116Y-3500907D01*
X10846688Y-3509797D01*
X10846688Y-3518941D01*
X10842116Y-3528085D01*
X10832972Y-3541801D01*
X10787506Y-3587267D01*
X10851261Y-3587267D01*
X10975213Y-3491763D02*
G01*
X10938890Y-3587267D01*
X10975213Y-3491763D02*
G01*
X11011534Y-3587267D01*
X10952606Y-3555263D02*
G01*
X10998072Y-3555263D01*
X11041506Y-3509797D02*
G01*
X11050650Y-3505225D01*
X11064366Y-3491763D01*
X11064366Y-3587267D01*
X11191113Y-3491763D02*
G01*
X11154790Y-3587267D01*
X11191113Y-3491763D02*
G01*
X11227434Y-3587267D01*
X11168506Y-3555263D02*
G01*
X11213972Y-3555263D01*
X11284838Y-3491763D02*
G01*
X11271122Y-3496335D01*
X11261979Y-3509797D01*
X11257406Y-3532657D01*
X11257406Y-3546119D01*
X11261979Y-3568979D01*
X11271122Y-3582695D01*
X11284838Y-3587267D01*
X11293983Y-3587267D01*
X11307445Y-3582695D01*
X11316588Y-3568979D01*
X11321161Y-3546119D01*
X11321161Y-3532657D01*
X11316588Y-3509797D01*
X11307445Y-3496335D01*
X11293983Y-3491763D01*
X11284838Y-3491763D01*
D12*
X7852790Y-3047263D02*
G01*
X7852790Y-3142767D01*
X7852790Y-3047263D02*
G01*
X7893684Y-3047263D01*
X7907400Y-3051835D01*
X7911972Y-3056407D01*
X7916545Y-3065297D01*
X7916545Y-3079013D01*
X7911972Y-3088157D01*
X7907400Y-3092729D01*
X7893684Y-3097301D01*
X7852790Y-3097301D01*
X7973695Y-3047263D02*
G01*
X7964550Y-3051835D01*
X7955406Y-3060725D01*
X7951088Y-3069869D01*
X7946516Y-3083585D01*
X7946516Y-3106191D01*
X7951088Y-3119907D01*
X7955406Y-3129051D01*
X7964550Y-3138195D01*
X7973695Y-3142767D01*
X7991983Y-3142767D01*
X8000872Y-3138195D01*
X8010016Y-3129051D01*
X8014588Y-3119907D01*
X8019161Y-3106191D01*
X8019161Y-3083585D01*
X8014588Y-3069869D01*
X8010016Y-3060725D01*
X8000872Y-3051835D01*
X7991983Y-3047263D01*
X7973695Y-3047263D01*
X8049133Y-3047263D02*
G01*
X8071993Y-3142767D01*
X8094599Y-3047263D02*
G01*
X8071993Y-3142767D01*
X8094599Y-3047263D02*
G01*
X8117459Y-3142767D01*
X8140065Y-3047263D02*
G01*
X8117459Y-3142767D01*
X8170036Y-3047263D02*
G01*
X8170036Y-3142767D01*
X8170036Y-3047263D02*
G01*
X8229218Y-3047263D01*
X8170036Y-3092729D02*
G01*
X8206359Y-3092729D01*
X8170036Y-3142767D02*
G01*
X8229218Y-3142767D01*
X8259190Y-3047263D02*
G01*
X8259190Y-3142767D01*
X8259190Y-3047263D02*
G01*
X8300084Y-3047263D01*
X8313800Y-3051835D01*
X8318118Y-3056407D01*
X8322690Y-3065297D01*
X8322690Y-3074441D01*
X8318118Y-3083585D01*
X8313800Y-3088157D01*
X8300084Y-3092729D01*
X8259190Y-3092729D01*
X8290940Y-3092729D02*
G01*
X8322690Y-3142767D01*
G36*
X4068724Y-4008018D02*
G01*
X3967124Y-4033418D01*
X3763924Y-4160418D01*
X4475124Y-4160418D01*
X4373524Y-4084218D01*
X4221124Y-4033418D01*
G37*
G36*
X8691626Y-8987180D02*
G01*
X8705596Y-8999931D01*
X8720074Y-9012072D01*
X8735110Y-9023553D01*
X8750655Y-9034373D01*
X8766606Y-9044482D01*
X8783015Y-9053931D01*
X8799830Y-9062618D01*
X8816949Y-9070594D01*
X8834424Y-9077807D01*
X8852204Y-9084259D01*
X8870289Y-9089948D01*
X8888526Y-9094825D01*
X8907018Y-9098889D01*
X8925661Y-9102191D01*
X8944406Y-9104630D01*
X8963253Y-9106255D01*
X8982151Y-9107119D01*
X9001048Y-9107119D01*
X9019946Y-9106255D01*
X9038793Y-9104630D01*
X9057538Y-9102191D01*
X9076182Y-9098889D01*
X9094673Y-9094825D01*
X9112910Y-9089948D01*
X9130995Y-9084259D01*
X9148775Y-9077807D01*
X9166250Y-9070594D01*
X9183370Y-9062618D01*
X9200184Y-9053931D01*
X9216593Y-9044482D01*
X9232544Y-9034373D01*
X9248089Y-9023553D01*
X9263126Y-9012072D01*
X9277604Y-8999931D01*
X9291574Y-8987180D01*
G37*
G36*
X5160924Y-3157118D02*
G01*
X5059324Y-3182518D01*
X4856124Y-3309518D01*
X5567324Y-3309518D01*
X5465724Y-3233318D01*
X5313324Y-3182518D01*
G37*
G36*
X10101326Y-2091080D02*
G01*
X10115296Y-2103831D01*
X10129774Y-2115972D01*
X10144810Y-2127453D01*
X10160355Y-2138273D01*
X10176306Y-2148382D01*
X10192715Y-2157831D01*
X10209530Y-2166518D01*
X10226649Y-2174494D01*
X10244124Y-2181707D01*
X10261904Y-2188159D01*
X10279989Y-2193848D01*
X10298226Y-2198725D01*
X10316718Y-2202789D01*
X10335361Y-2206091D01*
X10354106Y-2208530D01*
X10372953Y-2210155D01*
X10391851Y-2211019D01*
X10410748Y-2211019D01*
X10429646Y-2210155D01*
X10448493Y-2208530D01*
X10467238Y-2206091D01*
X10485882Y-2202789D01*
X10504373Y-2198725D01*
X10522610Y-2193848D01*
X10540695Y-2188159D01*
X10558475Y-2181707D01*
X10575950Y-2174494D01*
X10593070Y-2166518D01*
X10609884Y-2157831D01*
X10626293Y-2148382D01*
X10642244Y-2138273D01*
X10657789Y-2127453D01*
X10672826Y-2115972D01*
X10687304Y-2103831D01*
X10701274Y-2091080D01*
G37*
D13*
X1524000Y-4051300D02*
G01*
X2044700Y-4051300D01*
X2044700Y-4051300D02*
G01*
X2044700Y-3821305D01*
X2044700Y-3821305D02*
G01*
X2014059Y-3821305D01*
X1904639Y-4051300D02*
G01*
X1904639Y-4401299D01*
X1650639Y-4051300D02*
G01*
X1650639Y-4401299D01*
X1747365Y-3821305D02*
G01*
X1808640Y-3821305D01*
X1524000Y-3821305D02*
G01*
X1554640Y-3821305D01*
X1524000Y-4051300D02*
G01*
X1524000Y-3821305D01*
X1043051Y-2035990D02*
G01*
X2043049Y-2035990D01*
X2043049Y-3035988D01*
X1043051Y-3035988D01*
X1043051Y-2035990D01*
X1043051Y-2935988D02*
G01*
X2043049Y-2935988D01*
X2043049Y-3035988D01*
X1043051Y-3035988D01*
X1043051Y-2935988D01*
X1093063Y-2035990D02*
G01*
X1493062Y-2035990D01*
X1493062Y-2086002D01*
X1093063Y-2086002D01*
X1093063Y-2035990D01*
X1593062Y-2035990D02*
G01*
X1993061Y-2035990D01*
X1993061Y-2086002D01*
X1593062Y-2086002D01*
X1593062Y-2035990D01*
X11899900Y-6083300D02*
G01*
X11899900Y-7861300D01*
X8470900Y-7861300D01*
X8470900Y-6083300D01*
X11899900Y-6083300D01*
X12026900Y-6464300D02*
G01*
X12026900Y-7480300D01*
X11620500Y-7480300D01*
X11620500Y-6464300D01*
X12026900Y-6464300D01*
X8801100Y-7073900D02*
G01*
X8801100Y-7797800D01*
X8559800Y-7797800D01*
X8559800Y-7073900D01*
X8801100Y-7073900D01*
X3840099Y-4744595D02*
G01*
X3941699Y-4744595D01*
X3890899Y-4795395D02*
G01*
X3890899Y-4693795D01*
X9065259Y-8430519D02*
G01*
X9199879Y-8430519D01*
X9133840Y-8494019D02*
G01*
X9133840Y-8369559D01*
X4932299Y-3893695D02*
G01*
X5033899Y-3893695D01*
X4983099Y-3944495D02*
G01*
X4983099Y-3842895D01*
X10474959Y-1534419D02*
G01*
X10609579Y-1534419D01*
X10543540Y-1597919D02*
G01*
X10543540Y-1473459D01*
X1295400Y-6045200D02*
G01*
X7895386Y-6045200D01*
X7895386Y-9645192D01*
X1295400Y-9645192D01*
X1295400Y-6045200D01*
X2616200Y901700D02*
G01*
X9216186Y901700D01*
X9216186Y-2698292D01*
X2616200Y-2698292D01*
X2616200Y901700D01*
X8805290Y-3821201D02*
G01*
X8735440Y-3821201D01*
X9325990Y-4519701D02*
G01*
X9256140Y-4519701D01*
X9325990Y-4449851D02*
G01*
X9256140Y-4449851D01*
X9325990Y-4380001D02*
G01*
X9256140Y-4380001D01*
X9325990Y-4310151D02*
G01*
X9256140Y-4310151D01*
X9325990Y-4240301D02*
G01*
X9256140Y-4240301D01*
X9325990Y-4170451D02*
G01*
X9256140Y-4170451D01*
X9325990Y-4100601D02*
G01*
X9256140Y-4100601D01*
X9325990Y-4030751D02*
G01*
X9256140Y-4030751D01*
X9325990Y-3960901D02*
G01*
X9256140Y-3960901D01*
X9325990Y-3891051D02*
G01*
X9256140Y-3891051D01*
X9325990Y-3821201D02*
G01*
X9256140Y-3821201D01*
X8805290Y-4519701D02*
G01*
X8735440Y-4519701D01*
X8805290Y-4449851D02*
G01*
X8735440Y-4449851D01*
X8805290Y-4380001D02*
G01*
X8735440Y-4380001D01*
X8805290Y-4310151D02*
G01*
X8735440Y-4310151D01*
X8805290Y-4240301D02*
G01*
X8735440Y-4240301D01*
X8805290Y-4170451D02*
G01*
X8735440Y-4170451D01*
X8805290Y-4100601D02*
G01*
X8735440Y-4100601D01*
X8805290Y-4030751D02*
G01*
X8735440Y-4030751D01*
X8805290Y-3960901D02*
G01*
X8735440Y-3960901D01*
X8805290Y-3891051D02*
G01*
X8735440Y-3891051D01*
X5908700Y-2956001D02*
G01*
X12108688Y-2956001D01*
X12108688Y-5455996D01*
X5908700Y-5455996D01*
X5908700Y-2956001D01*
X8658707Y-3003600D02*
G01*
X9358706Y-3003600D01*
X9358706Y-3673602D01*
X8658707Y-3673602D01*
X8658707Y-3003600D01*
X8607907Y-3521202D02*
G01*
X8661882Y-3521202D01*
X8661882Y-3641852D01*
X8607907Y-3641852D01*
X8607907Y-3521202D01*
X9357182Y-3032252D02*
G01*
X9411157Y-3032252D01*
X9411157Y-3152902D01*
X9357182Y-3152902D01*
X9357182Y-3032252D01*
D14*
X6608190Y-4964201D02*
G01*
X6709790Y-4964201D01*
X6709790Y-5091201D01*
X6608190Y-5091201D01*
X6608190Y-4964201D01*
X6608190Y-5218201D02*
G01*
X6709790Y-5218201D01*
X6709790Y-5345201D01*
X6608190Y-5345201D01*
X6608190Y-5218201D01*
X6608190Y-4710201D02*
G01*
X6709790Y-4710201D01*
X6709790Y-4837201D01*
X6608190Y-4837201D01*
X6608190Y-4710201D01*
X6862190Y-4964201D02*
G01*
X6963790Y-4964201D01*
X6963790Y-5091201D01*
X6862190Y-5091201D01*
X6862190Y-4964201D01*
X6862190Y-5218201D02*
G01*
X6963790Y-5218201D01*
X6963790Y-5345201D01*
X6862190Y-5345201D01*
X6862190Y-5218201D01*
X6862190Y-4710201D02*
G01*
X6963790Y-4710201D01*
X6963790Y-4837201D01*
X6862190Y-4837201D01*
X6862190Y-4710201D01*
X7116190Y-5218201D02*
G01*
X7217790Y-5218201D01*
X7217790Y-5345201D01*
X7116190Y-5345201D01*
X7116190Y-5218201D01*
X7116190Y-4964201D02*
G01*
X7217790Y-4964201D01*
X7217790Y-5091201D01*
X7116190Y-5091201D01*
X7116190Y-4964201D01*
X7116190Y-4710201D02*
G01*
X7217790Y-4710201D01*
X7217790Y-4837201D01*
X7116190Y-4837201D01*
X7116190Y-4710201D01*
X7357490Y-5218201D02*
G01*
X7459090Y-5218201D01*
X7459090Y-5345201D01*
X7357490Y-5345201D01*
X7357490Y-5218201D01*
X7357490Y-4964201D02*
G01*
X7459090Y-4964201D01*
X7459090Y-5091201D01*
X7357490Y-5091201D01*
X7357490Y-4964201D01*
X7357490Y-4710201D02*
G01*
X7459090Y-4710201D01*
X7459090Y-4837201D01*
X7357490Y-4837201D01*
X7357490Y-4710201D01*
X8614790Y-4710201D02*
G01*
X8716390Y-4710201D01*
X8716390Y-4837201D01*
X8614790Y-4837201D01*
X8614790Y-4710201D01*
X8614790Y-4964201D02*
G01*
X8716390Y-4964201D01*
X8716390Y-5091201D01*
X8614790Y-5091201D01*
X8614790Y-4964201D01*
X8614790Y-5218201D02*
G01*
X8716390Y-5218201D01*
X8716390Y-5345201D01*
X8614790Y-5345201D01*
X8614790Y-5218201D01*
X8373490Y-4710201D02*
G01*
X8475090Y-4710201D01*
X8475090Y-4837201D01*
X8373490Y-4837201D01*
X8373490Y-4710201D01*
X8373490Y-4964201D02*
G01*
X8475090Y-4964201D01*
X8475090Y-5091201D01*
X8373490Y-5091201D01*
X8373490Y-4964201D01*
X8373490Y-5218201D02*
G01*
X8475090Y-5218201D01*
X8475090Y-5345201D01*
X8373490Y-5345201D01*
X8373490Y-5218201D01*
X8119490Y-4710201D02*
G01*
X8221090Y-4710201D01*
X8221090Y-4837201D01*
X8119490Y-4837201D01*
X8119490Y-4710201D01*
X8119490Y-5218201D02*
G01*
X8221090Y-5218201D01*
X8221090Y-5345201D01*
X8119490Y-5345201D01*
X8119490Y-5218201D01*
X8119490Y-4964201D02*
G01*
X8221090Y-4964201D01*
X8221090Y-5091201D01*
X8119490Y-5091201D01*
X8119490Y-4964201D01*
X7865490Y-4710201D02*
G01*
X7967090Y-4710201D01*
X7967090Y-4837201D01*
X7865490Y-4837201D01*
X7865490Y-4710201D01*
X7865490Y-5218201D02*
G01*
X7967090Y-5218201D01*
X7967090Y-5345201D01*
X7865490Y-5345201D01*
X7865490Y-5218201D01*
X7865490Y-4964201D02*
G01*
X7967090Y-4964201D01*
X7967090Y-5091201D01*
X7865490Y-5091201D01*
X7865490Y-4964201D01*
X10113390Y-4710201D02*
G01*
X10214990Y-4710201D01*
X10214990Y-4837201D01*
X10113390Y-4837201D01*
X10113390Y-4710201D01*
X10113390Y-4964201D02*
G01*
X10214990Y-4964201D01*
X10214990Y-5091201D01*
X10113390Y-5091201D01*
X10113390Y-4964201D01*
X10113390Y-5218201D02*
G01*
X10214990Y-5218201D01*
X10214990Y-5345201D01*
X10113390Y-5345201D01*
X10113390Y-5218201D01*
X9872090Y-4710201D02*
G01*
X9973690Y-4710201D01*
X9973690Y-4837201D01*
X9872090Y-4837201D01*
X9872090Y-4710201D01*
X9872090Y-4964201D02*
G01*
X9973690Y-4964201D01*
X9973690Y-5091201D01*
X9872090Y-5091201D01*
X9872090Y-4964201D01*
X9872090Y-5218201D02*
G01*
X9973690Y-5218201D01*
X9973690Y-5345201D01*
X9872090Y-5345201D01*
X9872090Y-5218201D01*
X9618090Y-4710201D02*
G01*
X9719690Y-4710201D01*
X9719690Y-4837201D01*
X9618090Y-4837201D01*
X9618090Y-4710201D01*
X9618090Y-5218201D02*
G01*
X9719690Y-5218201D01*
X9719690Y-5345201D01*
X9618090Y-5345201D01*
X9618090Y-5218201D01*
X9618090Y-4964201D02*
G01*
X9719690Y-4964201D01*
X9719690Y-5091201D01*
X9618090Y-5091201D01*
X9618090Y-4964201D01*
X9364090Y-4710201D02*
G01*
X9465690Y-4710201D01*
X9465690Y-4837201D01*
X9364090Y-4837201D01*
X9364090Y-4710201D01*
X9364090Y-5218201D02*
G01*
X9465690Y-5218201D01*
X9465690Y-5345201D01*
X9364090Y-5345201D01*
X9364090Y-5218201D01*
X9364090Y-4964201D02*
G01*
X9465690Y-4964201D01*
X9465690Y-5091201D01*
X9364090Y-5091201D01*
X9364090Y-4964201D01*
X11357990Y-4710201D02*
G01*
X11459590Y-4710201D01*
X11459590Y-4837201D01*
X11357990Y-4837201D01*
X11357990Y-4710201D01*
X11357990Y-4964201D02*
G01*
X11459590Y-4964201D01*
X11459590Y-5091201D01*
X11357990Y-5091201D01*
X11357990Y-4964201D01*
X11357990Y-5218201D02*
G01*
X11459590Y-5218201D01*
X11459590Y-5345201D01*
X11357990Y-5345201D01*
X11357990Y-5218201D01*
X11116690Y-4710201D02*
G01*
X11218290Y-4710201D01*
X11218290Y-4837201D01*
X11116690Y-4837201D01*
X11116690Y-4710201D01*
X11116690Y-4964201D02*
G01*
X11218290Y-4964201D01*
X11218290Y-5091201D01*
X11116690Y-5091201D01*
X11116690Y-4964201D01*
X11116690Y-5218201D02*
G01*
X11218290Y-5218201D01*
X11218290Y-5345201D01*
X11116690Y-5345201D01*
X11116690Y-5218201D01*
X10862690Y-4710201D02*
G01*
X10964290Y-4710201D01*
X10964290Y-4837201D01*
X10862690Y-4837201D01*
X10862690Y-4710201D01*
X10862690Y-5218201D02*
G01*
X10964290Y-5218201D01*
X10964290Y-5345201D01*
X10862690Y-5345201D01*
X10862690Y-5218201D01*
X10862690Y-4964201D02*
G01*
X10964290Y-4964201D01*
X10964290Y-5091201D01*
X10862690Y-5091201D01*
X10862690Y-4964201D01*
X10608690Y-4710201D02*
G01*
X10710290Y-4710201D01*
X10710290Y-4837201D01*
X10608690Y-4837201D01*
X10608690Y-4710201D01*
X10608690Y-5218201D02*
G01*
X10710290Y-5218201D01*
X10710290Y-5345201D01*
X10608690Y-5345201D01*
X10608690Y-5218201D01*
X10608690Y-4964201D02*
G01*
X10710290Y-4964201D01*
X10710290Y-5091201D01*
X10608690Y-5091201D01*
X10608690Y-4964201D01*
D13*
X8805290Y-3757701D02*
G01*
X9249790Y-3757701D01*
X9249790Y-4595901D01*
X8805290Y-4595901D01*
X8805290Y-3757701D01*
X9960990Y-3014751D02*
G01*
X10087990Y-3014751D01*
X10087990Y-3179851D01*
X9960990Y-3179851D01*
X9960990Y-3014751D01*
X9960990Y-3268751D02*
G01*
X10087990Y-3268751D01*
X10087990Y-3433851D01*
X9960990Y-3433851D01*
X9960990Y-3268751D01*
X10214990Y-3014751D02*
G01*
X10341990Y-3014751D01*
X10341990Y-3179851D01*
X10214990Y-3179851D01*
X10214990Y-3014751D01*
X10214990Y-3268751D02*
G01*
X10341990Y-3268751D01*
X10341990Y-3433851D01*
X10214990Y-3433851D01*
X10214990Y-3268751D01*
X10468990Y-3014751D02*
G01*
X10595990Y-3014751D01*
X10595990Y-3179851D01*
X10468990Y-3179851D01*
X10468990Y-3014751D01*
X10468990Y-3268751D02*
G01*
X10595990Y-3268751D01*
X10595990Y-3433851D01*
X10468990Y-3433851D01*
X10468990Y-3268751D01*
X10710290Y-3014751D02*
G01*
X10837290Y-3014751D01*
X10837290Y-3179851D01*
X10710290Y-3179851D01*
X10710290Y-3014751D01*
X10710290Y-3268751D02*
G01*
X10837290Y-3268751D01*
X10837290Y-3433851D01*
X10710290Y-3433851D01*
X10710290Y-3268751D01*
X10951590Y-3014751D02*
G01*
X11078590Y-3014751D01*
X11078590Y-3179851D01*
X10951590Y-3179851D01*
X10951590Y-3014751D01*
X10951590Y-3268751D02*
G01*
X11078590Y-3268751D01*
X11078590Y-3433851D01*
X10951590Y-3433851D01*
X10951590Y-3268751D01*
X11180190Y-3014751D02*
G01*
X11307190Y-3014751D01*
X11307190Y-3179851D01*
X11180190Y-3179851D01*
X11180190Y-3014751D01*
X11180190Y-3268751D02*
G01*
X11307190Y-3268751D01*
X11307190Y-3433851D01*
X11180190Y-3433851D01*
X11180190Y-3268751D01*
X7979790Y-3262401D02*
G01*
X8106790Y-3262401D01*
X8106790Y-3427501D01*
X7979790Y-3427501D01*
X7979790Y-3262401D01*
G75*
G01*
X9391650Y-8712454D02*
G03*
X9391650Y-8719566I-399984J-3556D01*
G75*
G01*
X10801350Y-1816354D02*
G03*
X10801350Y-1823466I-399984J-3556D01*
G75*
G01
X4619396Y-4515993D02*
G03X4619396Y-4515993I-499872J0D01*
G75*
G01
X5711596Y-3665093D02*
G03X5711596Y-3665093I-499872J0D01*
D15*
G75*
G01
X6739306Y-5027701D02*
G03X6739306Y-5027701I-80315J0D01*
G75*
G01
X6739306Y-5281701D02*
G03X6739306Y-5281701I-80315J0D01*
G75*
G01
X6739306Y-4773701D02*
G03X6739306Y-4773701I-80315J0D01*
G75*
G01
X6993306Y-5027701D02*
G03X6993306Y-5027701I-80315J0D01*
G75*
G01
X6993306Y-5281701D02*
G03X6993306Y-5281701I-80315J0D01*
G75*
G01
X6993306Y-4773701D02*
G03X6993306Y-4773701I-80315J0D01*
G75*
G01
X7247306Y-5281701D02*
G03X7247306Y-5281701I-80315J0D01*
G75*
G01
X7247306Y-5027701D02*
G03X7247306Y-5027701I-80315J0D01*
G75*
G01
X7247306Y-4773701D02*
G03X7247306Y-4773701I-80315J0D01*
G75*
G01
X7488606Y-5281701D02*
G03X7488606Y-5281701I-80315J0D01*
G75*
G01
X7488606Y-5027701D02*
G03X7488606Y-5027701I-80315J0D01*
G75*
G01
X7488606Y-4773701D02*
G03X7488606Y-4773701I-80315J0D01*
G75*
G01
X8745906Y-4773701D02*
G03X8745906Y-4773701I-80315J0D01*
G75*
G01
X8745906Y-5027701D02*
G03X8745906Y-5027701I-80315J0D01*
G75*
G01
X8745906Y-5281701D02*
G03X8745906Y-5281701I-80315J0D01*
G75*
G01
X8504606Y-4773701D02*
G03X8504606Y-4773701I-80315J0D01*
G75*
G01
X8504606Y-5027701D02*
G03X8504606Y-5027701I-80315J0D01*
G75*
G01
X8504606Y-5281701D02*
G03X8504606Y-5281701I-80315J0D01*
G75*
G01
X8250606Y-4773701D02*
G03X8250606Y-4773701I-80315J0D01*
G75*
G01
X8250606Y-5281701D02*
G03X8250606Y-5281701I-80315J0D01*
G75*
G01
X8250606Y-5027701D02*
G03X8250606Y-5027701I-80315J0D01*
G75*
G01
X7996606Y-4773701D02*
G03X7996606Y-4773701I-80315J0D01*
G75*
G01
X7996606Y-5281701D02*
G03X7996606Y-5281701I-80315J0D01*
G75*
G01
X7996606Y-5027701D02*
G03X7996606Y-5027701I-80315J0D01*
G75*
G01
X10244506Y-4773701D02*
G03X10244506Y-4773701I-80315J0D01*
G75*
G01
X10244506Y-5027701D02*
G03X10244506Y-5027701I-80315J0D01*
G75*
G01
X10244506Y-5281701D02*
G03X10244506Y-5281701I-80315J0D01*
G75*
G01
X10003206Y-4773701D02*
G03X10003206Y-4773701I-80315J0D01*
G75*
G01
X10003206Y-5027701D02*
G03X10003206Y-5027701I-80315J0D01*
G75*
G01
X10003206Y-5281701D02*
G03X10003206Y-5281701I-80315J0D01*
G75*
G01
X9749206Y-4773701D02*
G03X9749206Y-4773701I-80315J0D01*
G75*
G01
X9749206Y-5281701D02*
G03X9749206Y-5281701I-80315J0D01*
G75*
G01
X9749206Y-5027701D02*
G03X9749206Y-5027701I-80315J0D01*
G75*
G01
X9495206Y-4773701D02*
G03X9495206Y-4773701I-80315J0D01*
G75*
G01
X9495206Y-5281701D02*
G03X9495206Y-5281701I-80315J0D01*
G75*
G01
X9495206Y-5027701D02*
G03X9495206Y-5027701I-80315J0D01*
G75*
G01
X11489106Y-4773701D02*
G03X11489106Y-4773701I-80315J0D01*
G75*
G01
X11489106Y-5027701D02*
G03X11489106Y-5027701I-80315J0D01*
G75*
G01
X11489106Y-5281701D02*
G03X11489106Y-5281701I-80315J0D01*
G75*
G01
X11247806Y-4773701D02*
G03X11247806Y-4773701I-80315J0D01*
G75*
G01
X11247806Y-5027701D02*
G03X11247806Y-5027701I-80315J0D01*
G75*
G01
X11247806Y-5281701D02*
G03X11247806Y-5281701I-80315J0D01*
G75*
G01
X10993806Y-4773701D02*
G03X10993806Y-4773701I-80315J0D01*
G75*
G01
X10993806Y-5281701D02*
G03X10993806Y-5281701I-80315J0D01*
G75*
G01
X10993806Y-5027701D02*
G03X10993806Y-5027701I-80315J0D01*
G75*
G01
X10739806Y-4773701D02*
G03X10739806Y-4773701I-80315J0D01*
G75*
G01
X10739806Y-5281701D02*
G03X10739806Y-5281701I-80315J0D01*
G75*
G01
X10739806Y-5027701D02*
G03X10739806Y-5027701I-80315J0D01*
D13*
G75*
G01
X7014261Y-3249701D02*
G03X7014261Y-3249701I-240970J0D01*
G75*
G01
X8947988Y-3325901D02*
G03X8947988Y-3325901I-114300J0D01*
G75*
G01
X9298000Y-3325901D02*
G03X9298000Y-3325901I-114300J0D01*
G75*
G01
X11984888Y-3556000D02*
G03X11984888Y-3556000I-76200J0D01*
G75*
G01
X11984888Y-3806012D02*
G03X11984888Y-3806012I-76200J0D01*
G75*
G01
X11984888Y-4055999D02*
G03X11984888Y-4055999I-76200J0D01*
G75*
G01
X11984888Y-4306011D02*
G03X11984888Y-4306011I-76200J0D01*
G75*
G01
X11984888Y-4555998D02*
G03X11984888Y-4555998I-76200J0D01*
G75*
G01
X11984888Y-4806010D02*
G03X11984888Y-4806010I-76200J0D01*
M02*
