G04 Layer: BottomLayer*
G04 EasyEDA v6.5.47, 2024-11-15 14:45:06*
G04 4b5c5f3f08ad4ac4900c7fa2ef8e0776,b317b68cebba40d893488476fd38059a,10*
G04 Gerber Generator version 0.2*
G04 Scale: 100 percent, Rotated: No, Reflected: No *
G04 Dimensions in millimeters *
G04 leading zeros omitted , absolute positions ,4 integer and 5 decimal *
%FSLAX45Y45*%
%MOMM*%

%ADD10C,2.0000*%
%ADD11C,1.0000*%
%ADD12C,1.8000*%
%ADD13R,1.5240X1.5240*%
%ADD14C,1.5240*%
%ADD15C,2.5000*%
%ADD16C,1.6000*%
%ADD17R,2.5000X2.5000*%

%LPD*%
D10*
X11855450Y-6496050D02*
G01*
X11855450Y-6991350D01*
X12166600Y-7302500D01*
X12166600Y-8115300D01*
X11645900Y-8636000D01*
X9550400Y-8636000D01*
X9299193Y-8887205D01*
X8991600Y-8887205D01*
X9626600Y-3670300D02*
G01*
X11855450Y-5899150D01*
X11855450Y-6991350D01*
X11264900Y-7581900D01*
X11264900Y-7734300D01*
X9183624Y-3325876D02*
G01*
X9294875Y-3325876D01*
X9639300Y-3670300D01*
X6108700Y-3556000D02*
G01*
X8216900Y-3556000D01*
X8648700Y-3987800D01*
X9309100Y-3987800D01*
X9626600Y-3670300D01*
D11*
X10756900Y-7734300D02*
G01*
X10756900Y-7086600D01*
X10426700Y-6756400D01*
X8890000Y-6756400D01*
X7886700Y-5753100D01*
X5791200Y-5753100D01*
X5626100Y-5588000D01*
X5626100Y-4850892D01*
X5904991Y-4572000D01*
X6108700Y-4572000D01*
X10248900Y-6210300D02*
G01*
X10248900Y-5638800D01*
X9347200Y-4737100D01*
X7747000Y-4737100D01*
X7327900Y-4318000D01*
X6108700Y-4318000D01*
X10502900Y-6210300D02*
G01*
X10502900Y-5232400D01*
X9537700Y-4267200D01*
X7861300Y-4267200D01*
X7658100Y-4064000D01*
X6108700Y-4064000D01*
D12*
X10401300Y-1641094D02*
G01*
X9416181Y-655975D01*
X9416181Y-648307D01*
X9416293Y-648207D02*
G01*
X8902191Y-648207D01*
X8318500Y-1231900D01*
X8318500Y-2933700D01*
X8710701Y-3325901D01*
X8833688Y-3325901D01*
X8991600Y-8537194D02*
G01*
X9235693Y-8293100D01*
X11430000Y-8293100D01*
X11518900Y-8204200D01*
X11518900Y-7734300D01*
X9416288Y-1993900D02*
G01*
X9695688Y-2273300D01*
X9702800Y-2273300D01*
D10*
X8095386Y-8095183D02*
G01*
X8887406Y-8887203D01*
X8991600Y-8887203D01*
X9183700Y-3325901D02*
G01*
X9702800Y-2806801D01*
X9702800Y-2273300D01*
X9702800Y-2273300D02*
G01*
X9984993Y-1991105D01*
X10401300Y-1991105D01*
X9416288Y-1148334D02*
G01*
X9416288Y-1993900D01*
X9423400Y-1993900D01*
X5211724Y-3411093D02*
G01*
X4360824Y-4261993D01*
X4119524Y-4261993D01*
X5211724Y-3919093D02*
G01*
X4360824Y-4769993D01*
X4119524Y-4769993D01*
X2416302Y-648207D02*
G01*
X4282693Y-2514600D01*
X4826000Y-2514600D01*
X5600700Y-3289300D01*
X5600700Y-3530092D01*
X5211825Y-3918965D01*
X4119625Y-4261865D02*
G01*
X3349497Y-5029200D01*
X2349500Y-5029200D01*
X660400Y-6718300D01*
X660400Y-7660131D01*
X1095502Y-8095234D01*
X4119623Y-4769865D02*
G01*
X4119524Y-4769990D01*
X1294307Y-7595209D01*
X1095400Y-7595209D01*
X9037320Y-8537194D02*
G01*
X8991600Y-8537194D01*
D12*
X8095488Y-7595108D02*
G01*
X8991600Y-8491474D01*
X8991600Y-8537194D01*
X1293063Y-2515996D02*
G01*
X1293063Y-2842463D01*
X1905000Y-3454400D01*
X1905000Y-3797300D01*
D10*
X4119625Y-4261865D02*
G01*
X2791206Y-2933700D01*
X2210815Y-2933700D01*
X1792986Y-2516123D01*
X2416302Y-1148334D02*
G01*
X1792986Y-1771395D01*
X1792986Y-2516123D01*
X1651000Y-3797300D02*
G01*
X863600Y-3009900D01*
X863600Y-2200910D01*
X2416302Y-648207D01*
D13*
G01*
X1651000Y-3797300D03*
D14*
G01*
X1905000Y-3797300D03*
D15*
G01*
X1293063Y-2515996D03*
G01*
X1793062Y-2515996D03*
D14*
G01*
X11518900Y-7734300D03*
D13*
G01*
X11264900Y-7734300D03*
D14*
G01*
X11010900Y-7734300D03*
G01*
X10756900Y-7734300D03*
G01*
X10502900Y-7734300D03*
G01*
X10248900Y-7734300D03*
G01*
X9994900Y-7734300D03*
G01*
X9740900Y-7734300D03*
G01*
X9486900Y-7734300D03*
G01*
X9232900Y-7734300D03*
G01*
X8978900Y-7734300D03*
G01*
X8724900Y-6210300D03*
G01*
X8978900Y-6210300D03*
D13*
G01*
X9232900Y-6210300D03*
D14*
G01*
X9486900Y-6210300D03*
G01*
X9740900Y-6210300D03*
G01*
X9994900Y-6210300D03*
G01*
X10248900Y-6210300D03*
G01*
X10502900Y-6210300D03*
G01*
X10756900Y-6210300D03*
G01*
X11010900Y-6210300D03*
G01*
X11264900Y-6210300D03*
G01*
X11518900Y-6210300D03*
G01*
X8724900Y-7734300D03*
D15*
G01*
X4119524Y-4769993D03*
G01*
X4119524Y-4261993D03*
D16*
G01*
X8991600Y-8887205D03*
G01*
X8991600Y-8537194D03*
D15*
G01*
X5211724Y-3919093D03*
G01*
X5211724Y-3411093D03*
D16*
G01*
X10401300Y-1991105D03*
G01*
X10401300Y-1641094D03*
D15*
G01*
X1095400Y-7595209D03*
D17*
G01*
X1095400Y-8095183D03*
G01*
X8095386Y-8095183D03*
D15*
G01*
X8095386Y-7595209D03*
G01*
X2416200Y-648309D03*
D17*
G01*
X2416200Y-1148283D03*
G01*
X9416186Y-1148283D03*
D15*
G01*
X9416186Y-648309D03*
D14*
G01*
X6108700Y-3556000D03*
G01*
X6108700Y-3810000D03*
G01*
X6108700Y-4064000D03*
G01*
X6108700Y-4318000D03*
G01*
X6108700Y-4572000D03*
G01*
X6108700Y-4826000D03*
G01*
X8833688Y-3325901D03*
G01*
X9183700Y-3325901D03*
M02*
